<mxfile host="app.diagrams.net" agent="Mozilla/5.0 (Windows NT 10.0; Win64; x64) AppleWebKit/537.36 (KHTML, like Gecko) Chrome/130.0.0.0 Safari/537.36" version="24.8.3">
  <diagram name="Page-1" id="OTb3sDiWOi90Ps0Hrq8o">
    <mxGraphModel dx="1562" dy="845" grid="1" gridSize="10" guides="1" tooltips="1" connect="1" arrows="1" fold="1" page="1" pageScale="1" pageWidth="827" pageHeight="1169" math="0" shadow="0">
      <root>
        <mxCell id="0" />
        <mxCell id="1" parent="0" />
        <mxCell id="HGxuzXBtgqDV2k-sE6lM-1" value="" style="shape=image;verticalLabelPosition=bottom;labelBackgroundColor=default;verticalAlign=top;aspect=fixed;imageAspect=0;image=data:image/png,iVBORw0KGgoAAAANSUhEUgAABLAAAALgCAYAAACEf44CAAAAAXNSR0IArs4c6QAAIABJREFUeF7s3Qd4XOd95/vfKdMw6IVgAdhJUSyiqGZJlCxLlixZTuTEji073jQnthM7WWdvkn3u3vts7rNJdrO5yWYTF5mWLBe5y3ZsRy6ybEmWrMIiUmIXO0ASRO8zmHbmnHvPACABFgkgUQYz3/NEIYE5533/7+c9MKUf3/Me418/8xlPHAgggAACCCCAAAIIIIAAAggggAACCOSpgPGvn/ksAVaeTg5lIYAAAggggAACCCCAAAIIIIAAAghIBFjcBQgggAACCCCAAAIIIIAAAggggAACeS1AgJXX00NxCCCAAAIIIIAAAggggAACCCCAAAIEWNwDCCCAAAIIIIAAAggggAACCCCAAAJ5LUCAldfTQ3EIIIAAAggggAACCCCAAAIIIIAAAgRY3AMIIIAAAggggAACCCCAAAIIIIAAAnktYHyKtxDm9QRRHAIIIIAAAggggAACCCCAAAIIIFDsAsanPvuQV+wIjB8BBBBAAAEEEEAAAQQQQAABBBBAIH8FCLDyd26oDAEEEEAAAQQQQAABBBBAAAEEEEBAEgEWtwECCCCAAAIIIIAAAggggAACCCCAQF4LEGDl9fRQHAIIIIAAAggggAACCCCAAAIIIIAAARb3AAIIIIAAAggggAACCCCAAAIIIIBAXgsQYOX19FAcAggggAACCCCAAAIIIIAAAggggAABFvcAAggggAACCCCAAAIIIIAAAggggEBeCxBg5fX0UBwCCCCAAAIIIIAAAggggAACCCCAgPGpz37OgwEBBBBAAAEEEEAAAQQQQAABBBBAAIF8FSDAyteZoS4EEEAAAQQQQAABBBBAAAEEEEAAgZyA8emHWIHFvYAAAggggAACCCCAAAIIIIAAAgggkL8CBFj5OzdUhgACCCCAAAIIIIAAAggggAACCCDACizuAQQQQAABBBBAAAEEEEAAAQQQQACBfBdgBVa+zxD1IYAAAggggAACCCCAAAIIIIAAAkUuYHz6oS28hbDIbwKGjwACCCCAAAIIIIAAAggggAACCOSzAAFWPs8OtSGAAAIIIIAAAggggAACCCCAAAII+G8hZAUW9wECCCCAAAIIIIAAAggggAACCCCAQP4KEGDl79xQGQIIIIAAAggggAACCCCAAAIIIIDA8FsIWYHFnYAAAggggAACCCCAAAIIIIAAAgggkL8Cxqc/R4CVv9NDZQgggAACCCCAAAIIIIAAAggggAACxmcIsLgLEEAAAQQQQAABBBBAAAEEEEAAAQTyWIAAK48nh9IQQAABBBBAAAEEEEAAAQQQQAABBCTjM5/7vAcEAggggAACCCCAAAIIIIAAAggggAAC+SpAgJWvM0NdCCCAAAIIIIAAAggggAACCCCAAAI5AQIsbgQEEEAAAQQQQAABBBBAAAEEEEAAgbwWIMDK6+mhOAQQQAABBBBAAAEEEEAAAQQQmKiA61oXnGoYngzDnWgTnJenAgRYeToxlIUAAggggAACCCCAAAIIIIAAApMTeOYX94+7IBY3tXBhs264ce/kGuLsvBMwPrOFTdzzblYoCAEEEEAAAQQQQAABBBBAAAEEJi0wNBQZd81n/vW39cC7d2jN2j2TbosL8kuAACu/5oNqEEAAAQQQQAABBBBAAAEEEEDgCgUcJ6Cnf/5WlZendMvmF66wNS7PBwECrHyYBWpAAAEEEEAAAQQQQAABBBBAAIEpE9ixbbP6+x3d/Y5tU9YmDc2ugPGZLQ97s1sCvSOAAAIIIIAAAggggAACCCCAAAJTI3D06Dr94Hsb9LGP/1xlZd1T0yitzLqA8VkCrFmfBApAAAEEEEAAAQQQQAABBBBAAIErF+juqtaTT75N9977smrrWq+8QVrIGwECrLyZCgpBAAEEEEAAAQQQQAABBBBAAIErEXj8Ww9q823PaVFD25U0w7V5KECAlYeTQkkIIIAAAggggAACCCCAAAIIIDA5gd27b9f3Hl+maze1y7KzZy9uaOjUpuv2yTTPfW9yLXN2PggQYOXDLFADAggggAACCCCAAAIIIIAAAghckUAiEdVAf+CCNsJhR+UVcRkGW4BfEfAsX0yANcsTQPcIIIAAAggggAACCCCAAAIIIIAAAm8sYHx2yyNEkNwlCCCAAAIIIIAAAggggAACCCCAAAJ5K0CAlbdTQ2EIIIAAAggggAACCCCAAAIIIIAAAr6A8dnPswKLWwEBBBBAAAEEEEAAAQQQQAABBBBAIH8FCLDyd26oDAEEEEAAAQQQQAABBBBAAAEEEECAFVjcAwgggAACCCCAAAIIIIAAAggggAAC+S7ACqx8nyHqQwABBBBAAAEEEEAAAQQQQAABBIpcwHiIPbCK/BZg+AgggAACCCCAAAIIIIAAAggggEB+CxBg5ff8UB0CCCCAAAIIIIAAAggggAACCCBQ9ALGQ5//glf0CgAggAACCCCAAAIIIIAAAggggAACCOStAAFW3k4NhSGAAAIIIIAAAggggAACCCCAAAII+AIEWNwHCCCAAAIIIIAAAggggAACCCCAAAJ5LUCAldfTQ3EIIIAAAggggAACCCCAAAIIIDARAcf1JM+TbZmXPD2VTGrH9m06cvj1iTSZ1+dcf8NNWrt+g2zbzus6p6o446GH2QNrqjBpBwEEEEAAAQQQQAABBBBAAAEEZkcgNpRWKBhQwDYuWkAqldJLv3peRw4fUiAQmJ0ip7BXx3F03Q03atP1N8g0Lx3aTWGXs9oUAdas8tM5AggggAACCCCAAAIIIIAAAghMhUBsyJEMqTRy4YokP+zZ+uILOrB/X66rQgiwMplMbiybb79Da9aulWVZU8GYt20QYOXt1FAYAggggAACCCCAAAIIIIAAAghMVKB7ICPT8FRVFhx3SSKR0NYXXxz32GAhBVj+YK+/8SZt3HRdQT9OSIA10Z8EzkMAAQQQQAABBBBAAAEEEEAAgbwUyLqu2nv9RwgtVUWtcY/UPffM0zr0+sFxdRdagGUYht5y62Zds/HavJyfqSiKAGsqFGkDAQQQQAABBBBAAAEEEEAAAQRmTSCVyiiWtmUYripKTFnmuX2wvvTI58fVVVVVpS1btsxarVPV8YMPPnhBU3/wkY9NVfN5147xuYcf9fKuKgpCAAEEEEAAAQQQQAABBBBAAAEEJigQT6SUUkhZJ6PykHKbufuHH3h86ZHxYVUhB1gf/sgfT1Bs7p1GgDX35oyKEUAAAQQQQAABBBBAAAEEEEBgjEBPf1xGsFSOk1Fp0FMkdO4tg18kwCqIe8X43COswCqImWQQCCCAAAIIIIAAAggggAACCBSjgCe1dQ8qUlqpRCKpsJVRZXnJsIQnFVWA9dFCXoFFgFWMP96MGQEEEEAAAQQQQAABBBBAAIGCEPA8T6fb+1VdO0/xeEJBM63KssjZsX3x4SJ6hJAAqyDuaQaBAAIIIIAAAggggAACCCCAAAIFJuB6nk619au2rl6pVFrxgW41LqgmwCqweeYRwgKbUIaDAALFK+AZpnrCtWqOLFCfHc5BrBpqVWPsZPGiMHIEEEAAAQQQQACBghfIuq6OnuzW0iWLlUyl1dPVoWUNNQRYBTbzBFgFNqEMBwEEikMga9qKWyUasoI6EqpWR6hGXYGIOmSrMjWkaLxHnmmppWqR1qc6tXmwSXWpXpmeWxxAjBIBBBBAAAEEEECgaAT8AMt/hHDBgoVKJFNqaz2jq5bNJ8AqsDvA+NwjX/TfKsmBAAIIIJDnAhkrpM5wrdqClXo6XKWUGVLKtLU8ndLSgU4taT+mJV3HFc0kFU7G5K/IOj5vub5wzX2KhcK6eahN9/Xsk0WIleczTXkIIIAAAggggAACkxVwXVcJx5bkKmy7skxzpAlPxbUH1p9Mlm7OnE+ANWemikIRQKB4BAw5pq20aWvACutMpF4toWrtDJYp7XoKZ5K6dbBbywe7tKz9mGrbDr4hTSZUroMrbtIXll6rjnBUH+s7rJXxFpU4ieIhZaQIIIAAAggggAACBS8wmJJsU4oExg/1iw9/btw3qqqqtGXL+I3d5yLOgw8+eEHZH/4oAdZcnEtqRgABBOaUQDxQpq5gpc4EojoQqtCAHVVWlqoyKTX0temq9iOqSwyoOt6r0oH2SY7N0EB5vbYuXKOXV9wkx/T01vhpbRg8qYCbnmRbnI4AAggggAACCCCAQP4JEGBJBR1gbeERwvz7qaMiBBAoCgFPhgZClWoqWaTToUr9KFQhw/NU7Tq6I9an9R0ntKxph0oGO6fUIxWp0BM3vEffrV2s9dmkfrdjh6KZQRlT2guNIYAAAggggAACCCAwswIDIyuwSs5bgfVoEa3A+sNCXoFFgDWzP1D0hgACxS2QtEvUZ5dqe7ReraEadRsBVSfjqo5167qeU1oQ61Nt72lF4t3TDnV4yfX62eJr9Ku6JbovdkpvibdqQXJqw7JpHwQdIIAAAggggAACCCAwIkCAJRV2gPUFNnHnpx0BBBCYboGMGdLhsiX6RuliZQxLNw7FtKHjuNYffl4BN6ugk5LlzPSjfIacQEinapbpu9e8Q6+XlOmeVLc29x5U1IlPNwntI4AAAggggAACCCAwpQIDyeE9sEqCY5r1pKJagfWxAt4DawsB1pT+wNAYAggg4Au4hqWEFVZTsFKnI/O0K1wrORmt7O/QXW1Hteroi3kFlbXDem31Zn23YZ3cknK9vf+ork60KuoM5VWdFIMAAggggAACCCCAwKUELhpgSXr088WzifsfEmDxA4IAAgggMBEBf1+rnlCNvlmxUkN2RCHP1FX9HVp/crca+ttUMdgly0lNpKlZOWewtEbbV9ysR1bcqKWZmN432KRlseZZqYVOEUAAAQQQQAABBBCYjAABllTgAdaXvMncEJyLAAIIIHBOwA+sXMNUwgqpJTxPr5Qt0U4rrJCT0m90ndZdrz2hUHJwzpHFKhr0+Pq79GJto+Z5Gf1+12uqysRke86cGwsFI4AAAggggAACCBSHwEDSG3mEcPzriR79/EPjAKqqqrRly5Y5j/Lggw9eMIY//NjH5/y4LjUAY8sXCLAKdnYZGAIITKtA2gxpT3ShDoRr1WuXqiSdVmNfq25ofV0NvWdUMtgxrf1Pd+OuFVRr/Qr9bPFGHaxfocWZft05cEIL2eh9uulpHwEEEEAAAQQQQOAyBAiw/BVYBFiXcetwCQIIIFCYAoOBSh0sW6KvRecra5i6LpXUrx/druUntiuQScjw3IIauL/CrGveaj1647u1NxDSbyZ79dbuVxVwZ3rT+YJiZTAIIIAAAggggAACUyxAgEWANcW3FM0hgAACc0vAD3AGA2U6FKnXsXCNjlpR1Q4N6NaOo1rdfVoLWg/KdLNza1CXUW06WKKfrnmb9sxfqcFwRLcNHNemZBdvLLwMSy5BAAEEEEAAAQQQmHoBAiwCrKm/q2gRAQQQmAMCGTOkjkidnoku0tFAqSxZuqPrlN5ydKuqBtoUSfTPgVFMbYmeaWkoXK5dy2/SF1fepEXZpO4ZatOG/kNT2xGtIYAAAggggAACCCAwSQECLAKsSd4ynI4AAgjMXYGMGVBXsEpHS+r1YnieYjK0ZrBLt3Wf1poTO1Uy2D53BzfFladKqvXDje/Us7WLtczI6u29B7U42SXLK/zVaFNMSXMIIIAAAggggAACUyAwEwFWR0eHPM9TfX29MpmMvv/97+vXfu3XVFJSotOnTysYDGrevHlvOppjx45pxYoVb3reG51QhJu4f5m3EF7RLcPFCCAw1wX8NwnGguU6Fpmnl0PVaguWqyE5pNtO7dfSrmOq621VMB2f68OclvpdK6DTNYv15NV36eXqhVqT7NT7+o+qMl18q9OmBZhGEUAAAQQQQAABBCYsMJB0ZZuGSoJj30LoaSrfQtjT06OnnnpKH/jAB3T48GFt27ZN8+fP1z333KOtW7dq8eLFWrhwoWKxmEpLS8/W7oddrusqFArlvnfnnXfq2WefnfDYLnbixQOsT1xRm/l8sfH5Rwmw8nmCqA0BBKZLwFDaDKg3WKltZcv0ZLhKwWxWD/S369bjO7Xg1K7p6rgg2/UfLWxp3KS/3nCPknZQvznUpjt698r2XBni70kKctIZFAIIIIAAAgggkGcC/YnhACsaGhtgSV/Y8tlxlVZVVWnLli2XXf1f/uVf6p/+6Z/0+OOP693vfrd27dqlW265RU888YTuvvtu/ehHP8qtxNqzZ48+8pGP5FZk+edv2LBBe/fu1Yc+9CHdd999+trXvqaNGzdedh0XC7D+6I8JsC4blAsRQACBfBLImEF1BSv0arhGzeE69ZghLe1r14aOY7qm84Squpvyqdw5V0smVKadi6/Vs0s3aTAS1U1DZ3RT7KQiztCcGwsFI4AAAggggAACCMwtgZkKsH7+859r7dq1uTDqHe94R27l1XXXXafvfOc7uWDqy1/+cu5X/3j55Zf13ve+Vz/84Q917bXXqrGxUXV1ddq0aZNeffXVKwImwLoiPi5GAAEE8lPAMQM6VrpEj5YukWNaWptJ6+bWI1p/9AWVDfXLzqYlj5VCUzJ7hqFUIKzXVt6mr696i9Jy9eBgkzYOHGc11pQA0wgCCCCAAAIIIIDAxQRmKsDyHwf89re/rZtvvlkrV67MPVJYVlamaDQqy7J05MiRXLDlH9lsNvfZwMCAmpqacntmffKTn8w9QkiANbn7mEcIJ+fF2QggMEcEXMNUygqrJVCmI5EF2hOplZdOqb6/Q+9qP6JVJ7bLdNlsfLqns6tuhb5w1Vt1srJem5yYNsZOaHmql43epxue9hFAAAEEEEAAgSIUmKkAy6f927/9Wz3wwAO5RwD9wOrhhx/WP/7jP+bUH3roId111125Td77+vq0ZMmS3GqtVatW5UIrf7+sj370o/qHf/iHK9rInRVYRXiTM2QEECgsgZ5QjZ4tbdSRQLlcM6B1g71ad2qPVnQeU2WsR6a/2opjxgSydlinqhu1bfXt+mntIt2a6tHmWIsWJlpnrAY6QgABBBBAAAEEECh8gZkMsM6cOSN/L61IJKJ0Oq2jR4/mHiv0D3+j9/7+fjmOo6VLlyoQCKi5uTn39kJ/byx/k/fW1tbc5/4jhZd7EGBdrhzXIYAAArMkkDUsJc2gToVrtaNsqV61IipNJ3RzvFf37/+FqrqbZ6kyuj1f4PTCdXp07Z1qKa3WO4bO6IaBYyp3EjxayK2CAAIIIIAAAgggcMUCMxlgXXGxU9AAAdYUINIEAgggMBMCWcNWU8lC/SpSp85gucJOViu6T2lT60Et6TmjaKxzJsqgj0kKpMIV2t2wTo+vulXpUER3DZzQ5sETsj1nki1xOgIIIIAAAggggAAC5wQIsCTeQshPBAIIIJBHAikrot3lq/Tv0fnqNCwtzmb0h0e36+oDP8+jKinlzQTS4UodXHOH/vuyTfJfdPxfevZrSfzkm13G5wgggAACCCCAAAIIXFSAAKvgA6yv8NotfvgRQCDPBQwNBEq1I1KvtlC1mgJlqh4a0LruZt3YcUL17UdkOck8HwPlXUqgv6pBP1p6vfYvulo1Xlq3D57QsmSnbJcVWdw1CCCAAAIIIIAAAhMX6E9kZZuGoiFz3EVf2PKZcV/7e1dt2bJl4g3n6ZkXf4TwT/O02isvy/j8owRYV85ICwggMB0CrmGpNVKvF0obtdsuUY8V0rt6z+ievU+qMt6ncDougzcJTgf9jLfpmbY6K+bryQ336ZnqhVrtxPU7XbtV6sRmvBY6RAABBBBAAAEEEJibAgRY/gqsQg6wvkiANTd/NKkagcIU8Ddkbw1Wqjlcq92R+Wr3TNUO9enezhO6qu2IKjuPFebAGdVZgX1X3aFvNF6j46XV+u1Ys9YOnVFNZgAhBBBAAAEEEEAAAQTeUKB/KCvbusgKrM8V0QqsPyHA4scEAQQQmFaBITuq5ki9nglV61SwUrWuq7tP7NSatkOqiXUrmByc1v5pPJ8EDCVKKrVr/hq9vOw6nYmW6e2Jdm2MNSvqDOVTodSCAAIIIIAAAgggkEcCBFjSHxVygPUwK7Dy6MeNUhAoLoGMaastWKP9pYv141CVgllHtw/16m1Nu9XY9IqsbLq4QBjtBQJZO6ytG+7Vow3rNM809e6B41oxdFJB9sfibkEAAQQQQAABBBA4T+BSAdYjRbQC6yMEWPxcIIAAAlMjkDVsdYWqdChYof2R+Tpsl+iawW7deWKHFve3q7q7eWo6opWCEuipatTTK2/WdxvWaX1mUPcNNmt5ok2Wx0bvBTXRDAYBBBBAAAEEELgCAQIsiQDrCm4gLkUAAQR8gZQVUVPJQn0/2qAWK6QFWUe/0XpEK06+qpqek7IdVltxp7yxgGta6qpaou9uuEcvVc7Xciemj3W/pqgThw4BBBBAAAEEEEAAARFgEWDxY4AAAghMWsCToYQdUZ9dov2hWv20tEGVTlY3dR7XdV2ntKRlv0LJ/km3ywUI+I8Vts2/So+tuFEDFfO0PtWjm2JNqkv795MHEAIIIIAAAggggECRChBgFXyA9Rj/tl+kP9wMG4HpEHANS73BKr0WXaCXgpWKWyFdN9ij9a2Htaplr6rjPbJYbTUd9EXXZioU1ZEFa/Vv69+udsvUzal+3d3/uiJs9F509wIDRgABBBBAAAEEfIH+IWfkLYTWOJBHPvfpcV9XVVVpy5Ytcx7twQcfvGAMH/mTP5vz47rUAIyHv0iAVbCzy8AQmEYBzzBza11cmXINUxnDUnugVC+VLdOOYIXmJ+O6t6tJV3U2aVHzzmmshKaLXSATCOtb1/2GdtQsVtC29BsDR7U60aGgy2OpxX5vMH4EEEAAAQQQKC4BAix/BRYBVnHd9YwWgSIT8AMoxwjIMwxljIDSVlBO7nu2EqatlGkrK0NJw1LaMHXMDChrWLngyv/VPy9uBWXI1Lquk1rdfkQre06rou9MkUky3NkScK2A+isW6LnF1+rHjeu1Jjuk24datTp+crZKol8EEEAAAQQQQACBGRYgwCLAmuFbju4QQGC6BPx9qQYC5dpXulhdgVJ1WSHttELKSjJGOjX8dVXe6NfDTxgbuV/GPG3sedqUSajUc1WZSSnqZLS4t1XrDzzF44HTNXm0O2GBZLRW37j5Qf28rFY3Z5P6tZ59qk73KndvcyCAAAIIIIAAAggUrAABFgFWwd7cDAyBYhIYsqN6IdqoHdFFmt/XrrJUXHYmqUA6rlI3q3lZR5Y8lTpplWTSsl1HgayjUCahgJOW6WZz4ZSZzSiYHCgmOsY6BwWyVlCHGtbrxytv0eGyGr0l0a474ydVne6X4RFkzcEppWQEEEAAAQQQQOBNBQiwCjzAeuRL7IH1pj8FnIDAHBdIWiV6pPZ6mZ6h+469ovVHX5LlZmV6WRmuv/6KA4HCFEiFSnVo8Sb976vvkG14+vWhNt3Rf6AwB8uoEEAAAQQQQACBIhfoiw9v4l4aPreJu/9Xl488VDybuH/04wW8BxYBVpH/hDP8ghZIWiHtii7TD6MNWtfXqg/t+Zmqe08V9JgZHAIXE0hHqrR1+Q36UeM1Kg8GdHusSVclOhTJJgBDAAEEEEAAAQQQKBCBiwVY/tAeJsAqiBk2HvnSV3mWoiCmkkEgcE7A31y9I1Srr5YtU8Yq0R/ufkqL2w8pnByECYGiFfDfnNlbPk9bl92opxdvUMhN6b6hM9oQPynTc4vWhYEjgAACCCCAAAKFItAXz4yswLLHDMkrsgDrPxbKdF4wDgKsgp1aBlaMAv4m7Y5p67Vog75Xtlxv623TO/Y8qare08XIwZgRuKRA+/yr9LfX3q9YsESbvJTu792n2swgQRb3DAIIIIAAAgggMIcFhgMsc9wjhP5wHn7oU+NGVVVVpS1btszhkQ6X/uCDD14who9+nABrzk8sA0CgGATawrX6celyHTdCev/x7bqpebfCQ73FMHTGiMCkBTLBUh1csFqvNG7Qi7UNum+oTdcmOlWV6VfATU+6PS5AAAEEEEAAAQQQmF0BAiyJAGt270F6RwCBCQi8Vr5GW8oadWM6oQ++9lMtaNkviSeEJ0DHKUUu4D9aeGbBOn124706ES5Ro+tokxPXxtgpLUq0FrkOw0cAAQQQQAABBOaOwKUCrB8/8QM1HT92diCGYSgSicydgV2i0qGhoXGfbLrhJt26+fY5P65LDYBHCAt2ahlYsQicDtXol2VLdcQu192n9uude34iK5spluEzTgSmTMAJRnVm/mq9Wr1IB2oW60xJhWzL0sZEl5anOrUkE1e5w2OGUwZOQwgggAACCCCAwBQLXCrAGhwc0HPP/ELNTSfO9hgIBKa495lvLpM59999GzZu0s233qZgMDjzhcxQj8YjX2YT9xmyphsEplQga1g6E5mvT5Wv1tXxQb1/3y80r/uEApnklPZDYwgUm4BnWEqFo+oLl+vQkk1qjVbrR/OWqCKbUUM2obuSnWpMdijqxIqNhvEigAACCCCAAAJ5LdAXy2hdvFct9fPG1Vk9OKBuGXryuWd1/OiR3GeFFGBdd+NbdMNNb7msMTmeo/Z0mxaFGi6Y25bU6Yt+f7ZuAgKs2ZKnXwQuU8DfqD1phfVUxRrtDFTqvvZjuv3AMyod7LzMFrkMAQTeTGCorE6nF6zRYwuvUjJcrlSoRNdn+rUg3afFyQ5VuhmVZBNv1gyfI4AAAggggAACCEyjgB9gve/pH6t5+Qod3rAh11NtZ4duev55PfPrD6gnk9EzP/9ZbiVWIQRYjuNo/cZrtfn2O2RZ1mXJ+gHWd2PfUr2xQHeWvj3XRtbL6qnYTxU1onpr6Z2X1e50XESANR2qtInANAm4hqmDJY36WbRBlam03vn681p15qAsJzVNPdIsAgiMFXBNW7GyOjWX1+nI/Kt0pKZRR8Mlmp9NqjHdrxvS/VoxdAo0BBBAAAEEEEAAgVkQ8AO9V8thAAAgAElEQVSs+v5ePfD4V7X9t/+DMoZ01+Pf1o//w++ot7IqV1EsNqhf/fJZnWpumoUKp7bLddds1A033axQKHRFDceyg9rS+xm9r/yDWhJcqlOZZm0belm/VfGBK2p3qi8mwJpqUdpDYJoE4nZUO0qX67vher11qFe/96uvKpjsn6beaBYBBCYi4JmWzjRs1O4lG/V45Xz5X1uGqftTXbpu8LjKnbgsz5UpdyLNcQ4CCCCAAAIIIIDAFQj4AZZtmdp86pg2fPdxDZWWaveDH9Sx+voraLU4Lm1Nt+iJoR/od8o/rJ8M/Ltui96h+sD8vBo8AVZeTQfFIHChgGMGdDxUqx+XLZccTx98/Vda3bRDhscbBrlfEMgngVh5veIlVfplzSL1VS7Ss/OWaY2T0MJMvzamujXfiasy3ZdPJVMLAggggAACCCBQUAKjAVZpxNIHH96i5P//Qp7v/+FHCmqM0zUYT56ejf1Cx5wjWhtcr80lb52uri67XeMLX/4a/xV82XxciMD0CjimrR9VbdQrdpne2XVSb3vle4r4m7QTXk0vPK0jcIUCWSugwUBYbYs26OlVb9HWcJlsuSp3M3p3slvX9x+QcYV9cDkCCCCAAAIIIIDAsIBhSNWVFSqrqJJlGqp+7pda9fjjShvSng9+SIcXLIRqAgLtmTZ9uv+f9Tc1fy/TuLw9tSbQzWWfQoB12XRciMD0Cfh7XR0uWaRnSxYplnH1wIlXdP2xbTKz516TOn290zICCEy1wEBlg44vWKWf1SxRX1mtjoWjuikT15pEq5ZnBlTjDCnCJvBTzU57CCCAAAIIIFAkAvNqa3TdtRvUfLpN0fZWrfnUv2rbb71f6Y5O3fHNr+mHf/IJ9VdUzimNbNbV8dOdymQyCgcDCodsRSJh2aapQMCSaRoKBgJTOqauTKc+1f+/9De1/3NK252qxgiwpkqSdhCYIoGYXaqflC3T9vA83d3ZpHv3/UIV/a1T1DrNIIDAbAo4gbBiJRU6Xtmgzrpl+t6CVTItS+XZpG7KDGpjol3zkp0yxOLo2Zwn+kYAAQQQQACBuSVw603XqadvQP/vv3xef7d3l67+H/9NPysp0+FjJ/WOA6+q8sB+PfGbDyphTW3gM51KrufJlb8KypAfZvmP+GUdR/6/Jvrhled5Mg3/956i4ZBcN6tIKJD77HIPAqzLleM6BIpMIGuYag1W6smKq3VItv7y0Itadfj5IlNguAgUn0Bf9VJ9fc1tOlparXi4VI2GpxsSnVqYbFOdk1DETcvyssUHw4gRQAABBBBAAIEJCmy++QZ1dvao+6//TvXpmOZ/7THtOXBYR5tO57ZteO9TT+jnN25Wf1X1BFuc/dMMw5BhBnK7xzhuVllnOMTyXDe3pczwX3d6skwpaJm58CoYsHKPU17u0ev06Buxr+gTlf/pcpuY1utYgTWtvDSOwMQEMmZQW0uX6jvRBt3felS3Nu9SQ9vhiV3MWQggUBACmVCpWqobdLByoZrnr9aO8lrVe47qMv1am4nr6lSXKtL9rM4qiNlmEAgggAACCCAwlQJ1tdW6buM12v/6EdXX1cj/+oWXtysWH5rKbma0LSebVVNLl9JpJxdMhcPB3KOE/h5fAdtSMGhP+SOEMzrAy+jM+MJX2MT9Mty4BIEpE2gP1elvqq5RpevqA61HtHnH41PWNg0hgMDcFUhGa7VvzVv1b/UrdCwUkSdDm7JpvSN+SosTLQq5qbk7OCpHAAEEEEAAAQSmWKCupkqrVixXOp3R4WPHNDAYn+IeaG62BQiwZnsG6L9oBRJWRPsjC/ViuF6hRELvf/05LWk9KMPlUaGivSkYOAIXEcgGIkpEq7W3drH2VSxQc+1i9UdKtS7dryXpXl2V7lU4m1Zpln9J4wZCAAEEEEAAAQQQKFwBAqzCnVtGlscC/YFKfaN8tQ4HyvSBptd0++u/VDg5mMcVUxoCCOSDgGdaioei6iqt06EVN+nn85Zp0DBye2Styyb1tqHTakycyYdSqQEBBBBAAAEEEEAAgSkVML7wla/zqqMpJaUxBC4tkDaD2h+p15Oly7VkoEv3H9+pxc07IUMAAQQuS8AJlOh04wbtqF2sXZULFQtGZNu2bkl2aXmiTQuyQ4pkU7I957La5yIEEEAAAQQQQAABBPJFgAArX2aCOgpeIGWG9J3K9eowI7ql5aBuPfQrlQ31Fvy4GSACCEy/QG5lVrRa/cESHatuVMu8FfrpvCVakE1qvpPQ5lSXGlM9ijqx6S+GHhBAAAEEEEAAAQQQmAYBAqxpQKVJBMYKOIato5FF+nT5Si1LxvSJnf+u+s6jICGAAALTKuAEozqx7Eb9r+XXKWsF5doBbc7E1JAZ1NXx44p4roJuZlproHEEEEAAAQQQQAABBKZKgABrqiRpB4HzBFyZ6guU68fRRjUFq/XAqf3adPQllQ52YoUAAgjMmIBn2uqrXKhDNQ16vWaJWqoW6mgoqtVOXEtTnVqbiasx1S3bI8yasUmhIwQQQAABBBBAAIFJCxiPsgfWpNG4AIGJCByJLNQXKlZLjqO/3vFvmt9xTIbnTuRSzkEAAQSmRcA1LbmGqdOLrtGJRWv0ufkrZctTyMvqgVSvNg61qDbVNS190ygCCCCAAAIIIIAAAlciQIB1JXpci8BFBHoCFXq+dKmetyt0f+sh3Xv4JUUH2rBCAAEE8k4ga4fUOW+FvrvwqtweWi0V9ar3HK1MdWt1ukflblp16b68q5uCEEAAAQQQQAABBIpPgACr+OacEU+jwMHoUn0t2qD5rnTv0e3adORXsrK8/WsayWkaAQSmSCAdiqovXKameat0qHGdni2vU9jLqiyb0NvSA7pp8KgCvM1wirRpBgEEEEAAAQQQQGCyAsajj33dm+xFnI8AAuMF+uyoDkYW6PFIozZ3n9Lvbv2mbCcNEwIIIDBnBQYrG/T6ko36Tu0SJcKl6gyE9ZZsQtcPnVJjuldlblpBl/+dm7MTTOEIIIAAAggggMAcEzAefewbBFhzbNIoN38E/L1kOoPVerh8tQJZ6bdf/5VWnDmgSKI/f4qkEgQQQOAKBJxAifrK63S4pFzt81bqmfkrpUBQ9c6Qrkn3a026V7XpXtmszroCZS5FAAEEEEAAAQQQeDMBAqw3E+JzBC4h4IdX26Mr9K1og+7p79D9rz6hir4zeCGAAAIFLzBYtVjPr71D36luVNqytMZzdJUT13Wx46rJDMryXBni78cK/kZggAgggAACCCCAwAwKEGDNIDZdFYaAJ0OnQrV6NrpYna6tO07t0R2HX5KdjhfGABkFAgggMEGBTKhMZ+Yt146qRWqqW6ZD0UpVGtJVqU6tzAxoRWZA5ZlBwqwJenIaAggggAACCCCAwKUFCLC4OxCYhEDaDGpPdIkeK1mkDZmU/uiFr6l8oF2G506iFU5FAAEECkvAM0xlAiH1l9To0Mqb9UpZrXZUzlPYzWpNNqm7k21qSLQr5CYLa+CMBgEEEEAAAQQQQGDGBAiwZoyajuaygGtYaguU6aelK3XaCOmDJ3bp+gO/kOHxiMxcnldqRwCB6RPwN4HfO3+lnqtZrIGyGmVCJdqY7lN1ZkDLMn2qziZVkk1MXwG0jAACCCCAAAIIIFBQAgRYBTWdDGY6BLKGpefKrtK2YJXW9nfp7ft+pgV9rTLc7HR0R5sIIIBAQQm4VkCD0WqdLqvTkcaNeqV6oTqDIVVmk1rlxHVLqksLk52y2AS+oOadwSCAAAIIIIAAAlMtQIA11aK0VzAC/l5XXcFKfa9spY4aIb3vzCG9be9TCrDXVcHMMQNBAIGZF8gGImpeskk75q/SL8vnKWtaCtm27kl2avXQaVVnEwp6jkwezZ75yaFHBBBAAAEEEEAgjwUIsPJ4ciht9gQyhq3no4u1rWSR5g9067cOPqeGtkOzVxA9I4AAAgUm4BmWBirqlQhGcpvAd8xboV/WNmqFk9D8zKBuTPeo1hlSVaavwEbOcBBAAAEEEEAAAQQuR8D44mPfZBOfy5HjmoIVSJlhfbf6Gj1tl+qvj72i9Xt/wl5XBTvbDAwBBPJFwDMMOYGIji+/WT9ccYNeCUZypa10U7o/2aWNA/wlQr7MFXUggAACCCCAAAKzIWB88asEWLMBT5/5J5A1bB0M1+vRshW6erBX7zy5W2uPvph/hVIRAgggUOAC/uqsnpolOlnTqOdql6qrvE4nQyXalIlpeapTq5xB1TlxhbO81bDAbwWGhwACCCCAAAIInBUgwOJmQEDSgF2qf6lYJxm2bu9q0T2v/kDhVFwGe7BwfyCAAAKzKuAEwrnHDFuqlqizZrE+vWyTyr2sIm5Gm524lmcGcr9fmOpQ0E3Paq10jgACCCCAAAIIIDB9AgRY02dLy3NAwH/D4IlQnX5asljdWemPjrykq07skOk6c6B6SkQAAQSKT8AzTHXWr9bWxdeoLVSmIyXlSttB9dhBrfQcLXaGVOfEVO7EVevEVOplFfYc2W5WAS9TfGCMGAEEEEAAAQQQKBABAqwCmUiGMXmBmB3VT0qWaFe4TnedOay7jr6kqt7Tk2+IKxBAAAEEZkUgE4wqES5TMhBWWzCs7tI69VQ1aCBSrqaScp0OhVXhZlXqphV0HdW5CV3jDKnG3xzeGVQ4m5iVuukUAQQQQAABBBBAYPICBFiTN+OKOS7gGqZ6ragerbpWpamk3nNip1Ydfm6Oj4ryEUAAAQTOF0hFqtS6cK1OVy3UY3VLlDVMuaYl/8+BlGXpOjejmmxKSzODakx1qMIZlCnJ9lyZnidTLqgIIIAAAggggAACeSJAgJUnE0EZMyOQMQN6qnSVdgeqtLbrpN75+nOq7WuZmc7pBQEEEEBgVgUyoTIlIhUajJTrQGmVOkuqciu4/H+aSqs0ZAdU6rman02oNJvQPCeuRW5G1dmkIm5aZc7grNZP5wgggAACCCCAQDELEGAV8+wX0dj9v0c/E56n/1m2WlWepz/f+YQa2g/KyrLXVRHdBgwVAQQQGCfg76c1+k/GNBWL1qivarG6KxfoRNUCfb+8VrY8WZ4nQ55CXla3ZRO6KtWnEjethmSrbI8/R7itEEAAAQQQQACBmRAwvvjVb3kz0RF9IDAbAv5/csStiF6MLNCLkYW6q6NJtx16XlW9p2ajHPpEAAEEEJhDAlk7pKHSOvVW1KsvXKqny+uUCZZqKFKuZCCk08GwlnuOFjoJVWWHVObEc6u3atx0bsVW0M3I8rJzaMSUigACCCCAAAII5K8AAVb+zg2VTYFAa7BG3yxboRbZ+rN9T2vNmQMKpONT0DJNIIAAAggUn4AhJxBSOliitBVQtx1UX8VCddUsVlPVAh0Ml6rfslXqOgq5GdleVgu9jK7PDKo2E1d9uotAq/huGkaMAAIIIIAAAlMkQIA1RZA0k18CSTOoV6LL9I1wvW7vb9cH9jyl8t7m/CqSahBAAAEECk4gVVKt9vpVOl05X/9WtUCeaSsVLMltIN9rB7Xey2ixE8/tq7Uw1aWqbEJhLyvb8xTwnBkLuPyN7IcfjDTkGoZcmcoaRm4+sjLkGIbiMuXvHZk1bPl/ribMkBzDUr8dUcTNjJu7sJuR36J/RLLJs59Znqugd+7c0NjP5Ck8phV/8/zRw69ktD1/Q/3hykYPf2OA4b6Mkcc7Rz8Z/b7/tTmmvYK70RgQAggggAACRShAgFWEk17oQ24K1+sHJQ1KGiG97eReve3g0wpkzv3LdKGPn/EhgAACCOSHgGcYygYiGiitza3YOhopU39pnfrL6pQKhrWnfJ5Stq1K11HYcxTNJrUom1Cjm1atM7yRfPkkNo73wyZXljKmpZQRzIVNfnCWMANKmpbSMnXcDGrQ8MMqK/e5H2RlZSpt2soYVg4ubZhKGpZaDUsLsxmVu67KnbSimaRsN6uyxKDSgdA45EQgnAvD/CMWPBdL+XuLDVl27vutZkADpv+ex+EjJE+VY0KmiOdHZ8OH/2tg5DM/BLNGAqvcZ56XW93mH35g5X8+eozdk8wasz/ZPM9V2Zi3SgY8T9GRNgJeVv7Xo8f54VzID+BGPg556bPn+f2O1uH3RWCWHz93VIEAAgggULgCxpfYA6twZ7fIRub/y3hzeIH+rnyV3jLYrY/seoJVV0V2DzBcBBBAYK4JJErr1V27VL3ldXqtdrF+UlotP/jyIxzPkMo8T7dmE7o61aNoNpUbnh88ddtRpUxLA2ZArVZIW83QuPDHD3nOHSOrlfxv+OGPPN2aGlJ9KqFINqPSdEKViQGF0kkFnZSi8T5FEn0q7Zve/SKzdlipkqqzZQ5Fa8/GVK5lKxEuzX2WCoTHBWb+n/eD4Wjus6QV0NCYMO3MyPf9z54PDZ9z7hizjss4m0ld5JYZv95r7An+nIxtb1T5/A1lb3WH52r0qB+ZO//r6jG/94PLoHtun7TSMSvUgrnPzq1ei2QTZ9sb+/vhdXSXPt7os4uP5g0a4yMEEEAAAQRmUcD40tfYxH0W/el6CgT8xx4GAqX6fnS5Wo2I3nlyj65t2qmywY4paJ0mEEAAAQQQmDkBP9RJlFTlAq2BUFQ7opXygx0/zHFMK/ePv/Inkk7IdLMKOGkF0gnZ6ZiWZDO5lUQlWUcV/veyjmx/dVcmmVuJ7L95NzzUIzM7/vG/mRvd7PXkBCJyrcDZAvxHOzP28CqyrB1UdmSVmP91MjD2wUb/a/+84RgoPiYsS5tWbmWbf7RaAcVHHsH0v3ZCw+Hb6JEJRM7+fuzqtaxpyx1pI9e3HTx73uh8j34jZp+r//SYsczzsoqOWaHmP47qr2bzj6C/SmzMyrOwe+6tmf7qMWvMZ/6+baOHv5ps9AUE/qo2PyQbPRaOeTFB+LzVceGRMM4/P3jeCwz8R2T9Y3h13fi3d/r36ejBmz1n7+eEnhFAAIF8FyDAyvcZor43FdhbsljfKmnU2kRc9+95Ug2dx2SM+dvMN22AExBAAAEEEMhbAUOOHZRr2rmVWf5+Vf7qKsv1H7fzZHhuLsjiz738mkA/IBt7uGMenXRHHtX0Px9dbTd6bnbMeX5kNPz58OEY5x6/TI75fjpcKf+NmWfbsINKBYdXn6WDkdz9M3rEI2Vnf++HZWnr3Gd9Y1avxa2AYvbwGA7aIQ2MCdn8h0VHj/P3Jxv7qOfY/cj880dXBY6sLxzn49/HuXOG1x6e/WyV56h8zCOite65RzijrnP2MdNSNz3uOn/12ujjnRE3Jb/O4fY9hca0EcymZI4J8fLrLqIaBBBAAIHzBQiwuCfmrEBnoELbSxr1olmuzV1Nes/unyiQHJiz46FwBBBAAAEEEEAg3wVSJTVnS8wEI8qOWQ2WGFl55pmmksFzq878C+LBktx1fggbO2+VW8/Ivmn+urH9Yz7zV815Y4I7f7Xc6JE1rbOf+SvZxj5H6e/95u/v5h/+nnAaCfz8GMt/9Hb08Pdk89eX+Yd/9poxLxwoc/0Q7FyYVjayQs0P6cJjzvOv9V9ikGvDc5XbM23k8B8BPRfceQqOCc/8PdlGKxlesXauL/+FBqPRpb9H29hj9PUL/vf81ZhjA7/RfdiGg8Vze8Pl+z1FfQgggMBEBQiwJirFeXkjkDECOhKZr29FGlThSh/e+e9a2Hkk92gEBwIIIIAAAggggEBhCLhWcGIBluXv7HbuGA63hiOgjL96ceQj/3upMavc+nMvMzj36oCxe7Jl/LeHjllJlxzZk81fQee/hGHsER8J6/zgLD4mgOsPBM++3XPveaFduR9gjRTmVxAas9LMf7RzdL3d6Eqy0f6sMW/ePD/AGn2hgR9ejd0Hb+15gdt1iRbVZib2l779gz3KZodDNMuyZY742VZg3N5rpmXJHAkN/fOMMasEC+NuZBQIIJAPAgRY+TAL1DAhAf/vkuJWSD8pu0rbrDJ9sPWw7tj5vXF/QE+oIU5CAAEEEEAAAQQQQGAWBVIl1XLNkX3NDEOJksqz1SRD0bPh2djHPv0T/Dd+ZkZWvfWFSs4Gdf4jpt0jwVqbaatpzJ5p3phVZ44Z0ELb0n/seUUh943f0n3k5AF19bUr4ww/ujmct53/yoI3RwzYQQXGrNQzDFPBMfvJhQLhs4GXH3wFxzwS67ceDA4/IusHfed/FgicW5U39ve588es3jNHXo7h/2KMRm/+I9nDJ579HsHbm88nZyAwmwLGl7727cn/r9BsVkzfRSng/23XrpJGvRCqU+nQkO458pKuPnOgKDeiLcobgEEjgAACCCCAAAIIXJZAZmRPNP/iVxeu0b9uvF8Pdb0o67zN9Mc2nsmk9fK+Z2X5L44YXYk25jFH77wga1y4dZH/ujz//LF9eePemnphSDb28/Ob9sasXDsfxw/ORg9/xZg/Fn8F2eh4/LDKXzU2urLMD7yskRVmo0GZ34Z/vn+d38Zw3mUMu+RWpPkrz4zc7zkQQGD6BQiwpt+YHq5QYMiK6rtlK/VcsErv72zWu3b9QOFE/xW2yuUIIIAAAggggAACCBSXwC9W364X19ymv+h68Q0HPhDr02tHtipghXJhzVw8xgdfnkbDrtHvD//qydWFn42ON7dG69y7FEa+PfyNs98eXsaV+150ZB+4cCiqgB2QbdkKjzxiGgqGZefCMD/8Gg7Axq5Em4vG1IzATAsQYM20OP1NWMAxLO0L1elX0SXqd1z9weu/0lUntk/4ek5EAAEEEEAAAQQQQACBcwI/u/rt2r3qen28a+sbspxqP6ETZw4pFIice+SuiCDPD7/8oOvsQjHPX082uuZs5NeLrCLLfXLu/529ZpRxbB/+Y5T+EbBDI6u9bAVG3hJq27ZMY3j1mL9izN9vzA/G/GN0VZgfMg6vIBsOxvxj9Hz/+368lvt6joaRRXTrMdQ3ETC+zCOE3CR5KJA2g3ohulzfCc/T77Yc1I2v/1Ll8d7c68I5EEAAAQQQQAABBBBAYPICP77mfjUvvlq/17Pjkhe7nqtDzfvU2deqkD3+bZKT77F4rzj72OS45x7PfTH22+fCrJGr/JBsJBQbXiM2nIYNf+vcZ7mN8w2NbKA//Ejk6D5ehjkcXI3uBeZ/3//HD738cMwPtPzALPcSgUBYwdx+YkZu5ZgfdI1u1B8IBGTb/qb9FyxFK97JZeSzJkCANWv0dHwxAf+VxyeD1fp02VWqyGT03tP7ddPen4KFAAIIIIAAAggggAACVyjwnZselFNTpwf691yypXQmpVcPb5PjZM6u8LnCbrl8mgQuWCk2dnXYyCOSww9KevLTrwv3Gxu7Lf9IpDb+l7Mb9/uru/y9wXIb7Y+sGAsFQvL3CcvtC2bZuRVgoyvHcsFX7o2UE1v5NfoWyzejGg3i3uy84c/9UG8SwVtuX7SJnT/2JQFvVkvuNQETa3bcywferN1i/Nz48tfZxL0YJz4fxxy3ItpWslg77EotGejVu/b/XPW9p2W4w6/u5UAAAQQQQAABBBBAAIHLF/j65t9TtCysewYPXrKReGJQrx7aKtscDiY4Cldg/CqxsVvxj9l2f+zm/WdXhY2auBc8Wjm6smx0zzE/vJnIJvdnXxbwJtym6YdB5oQmxe/bX2k20WN0Y/+JnD/c7sR+Pobbndi5k3nMc/TlBBOp1z/HP3+iHv7qvIke/qq9yfxvRe4R2Al4+GKjj8mO1kKANdFZ4bxpE/BkqCdQoW9FV2ivVaLfP7lbd+79GW8YnDZxGkYAAQQQQAABBBAoRoF/fsefa736tTl+7JLDb+k4qaOnDyoc4PHBYrxHpmPMF1v5dX4/b/SmyvHnXnwl2aXqnkjfY699ozdbjjtvdGXbBMEmXMcF+6lduoOLvPBzgtVM5LTpbX0iFVzsHAKsy5XjuikRSJgRvRRZoOciC7Wu67TeeXyHFrRe+m+EpqRTGkEAAQQQQAABBBBAoAgF/ADrBrdT1ydOXXL02/Y9L/8xQv9xMQ4EEMhvgQkHY5McxsQDRT/Jm1zYNZm2z2/Z+PLXH59cb5McOKcjcCmBlBnWI5UblXSl+0/u08aDTyvopABDAAEEEEAAAQQQQACBaRD4f971n/WuxAmtS3VctHUnm9ELr/08t6+RbQamoQKaRAABBC5fgADr8u248jIE/E3ae+1SvRqs1XOhei0a7NYHDjyrRR1HL6M1LkEAAQQQQAABBBBAAIGJCGTtsH7v1/5K/1fvq1riDF70kvbuFh1s2iN/c27TsCbSLOcggAACMyZAgDVj1MXdUcYMqi1QpWfCdTpsl2lFYkh3Hduu5a0HFEkMFDcOo0cAAQQQQAABBBBAYJoFeuet1v99y/v1V32vap4Tu6A3f++fA8dfU1d/u0KBiP/etGmuiOYRQACByQkQYE3Oi7MnIeBvzp42bR0N1mlrSYNeNYJaH+/Rr58+qGVNryiQuvAPzkk0z6kIIIAAAggggAACCCAwQYGOhRv0jzf8mv68b7cqs/ELrso4Ge09ukOxxKBCdniCrXIaAgggMHMCBFgzZ11UPaXMkLaF5+u1UK2OWCW6pfu0bm/eqaWdTQonL75kuaiAGCwCCCCAAAIIIIAAAjMocHjN2/XVVdfpz/r3KJpNXtBzPBHLBViu68oy7RmsjK4QQACBiQkQYE3MibMmKJAxAnqldIU+H67XUietd3a36IbXn1N578kJtsBpCCCAAAIIIIAAAgggMNUC+9a/U99Zuk5/2r9XJe6FAdbw/le7FQlGp7pr2kMAAQSmRIAAa0oYi7sRx7DVEqzSa8EaHQ5UykgldfepPVrXdlSVfacn/VrN4tZk9AgggAACCCCAAAIITL3AMzd/SC/X1OnjA/sUdDMXdNB05ohOth3L7X/FgQACCOSjgPGVb3zHy8fCqCn/Bfw9rtoC1fpU6XLFzaCWOBnde2KX1p3Yrigbs+f/BFIhAggggAACCCCAQNEIPHH7h7W/vFR/MnBAAc+5YHeKwyYAACAASURBVNyvvb5NscSAbDtQNCYMFAEE5pYAAdbcmq+8qDZmRXTSiuqVSKP2GSFVDvXrt0/u0VUndsjKpvOiRopAAAEEEEAAAQQQQACBcwL/eO8nZZoZfWzwoEyNX8OQSif10p6nFQqEZZoWbAgggEBeChBg5eW05GdRA1apdoXn64VglUzP1I0dTbru5G7N62tVKNmfn0VTFQIIIIAAAggggAACRS7gBCL68L2f1Lucbv167MgFGl297dp3fGcuwDIMs8i1GD4CCOSrAAFWvs5MntTlylCfFdG+cIO+HKlXiZPRu3tadPfunyga786TKikDAQQQQAABBBBAAAEELiWQDpfrj+7+hD6Y6dAd8WMXnHbw+B519J1R0A7JMAwgEUAAgbwUIMDKy2mZ/aJcmWoLVuqZYJ1eC1ZrVXxAa9qP6Ma2w6rtapr9AqkAAQQQQAABBBBAAAEEJiQwUNWgT9z2u/rjZIs2JZrHXeM4GW3f/7yyblYBOzih9jgJAQQQmA0BAqzZUM/jPjNGQO3BGv04skg7rYjemhjUnYdf1rJTr8pyHRkee/7n8fRRGgIIIIAAAggggAACFwi0zV+jv7zpvfqv8SNqTHWM+zw2NKDXDm/NPTpomTZ6CCCAQN4KEGDl7dTMXGH+2wTjVljbgnU6FJqnZjOodT0tenvLQa06sX3mCqEnBBBAAAEEEEAAAQQQmHKBloXr9J9v+E39Tex1LUh3jWu/teu0DjfvVTC3/xWPD045Pg0igMCUCRBgTRnl3GwoZQT1fHSpfhmoVIcZ0ru6TurOA79QTbxXwfTQ3BwUVSOAAAIIIIAAAggggMBZgdeX3ai/ueY+/XP/ayp3Bs9+35OnY6deV0tnk0KBCGIIIIBAXgsQYOX19ExPcRnDVtwM6pVwg34aqlNdMqZ7upp1TdNrquhhf6vpUadVBBBAAAEEEEAAAQRmR2Dvipv19+vv0b/07VRp9txfUrueq1f2v6i0k5RtBWanOHpFAAEEJihAgDVBqEI4zQ+uTgZr9WKoVsfsMi0Yiumuoy9peU+LymKdMtxsIQyTMSCAAAIIIIAAAggggMAYgSfWvE1fXfNWfbHrBZlyz36SzqS0fd9zMi1bpmFihgACCOS1gPGVb36XXbnzeoquvDhXhlqD1fpMdKU6jIDWpIf0+4df1pJjL11547SAAAIIIIAAAggggAACeSvgGZa+eu271NW4Vn/cu21cne3dZ3TwxKu5xwfZ/ypvp5DCEEBgRIAAq0BvhaxhadAq0YFAhfYE69TlWmroa9fdLfu0/MxB2ZlEgY6cYSGAAAIIIIAAAggggMCogGva+sqmB5RauEK/2/fKOJjte59TMj2U28CdAwEEEMh3AeMxVmDl+xxNur4Bu1RbI416IlCpatfVO9uO6dojL6ks1iXbSU26PS5AAAEEEEAAAQQQQACBuSngWgF98fr3KDJvkd7T/+rZQWSzjp7b9aRsO6CAFZybg6NqBBAoKgECrAKZbn/F1Wm7THtD9fp+sE6NyUHd1XFcbznxiir7zhTIKBkGAggggAACCCCAAAIITEYgEwjroc2/p7URU7fFXj97aWdvu/Ye3ZFbfWWZ1mSa5FwEEEBgVgQIsGaFfeo69WSoJVijr4cXKmOEtCI+oHWn9uqqjiOqHOiYuo5oCQEEEEAAAQQQQAABBOacQDoY0b/e/mHdZcW0NnEyV7/neTrcvE8tnc0KB0vY/2rOzSoFI1CcAgRYc3De/dBqyAqpKVCjreH5elUB3TnQoVtO7tPy5p0yXGcOjoqSEUAAAQQQQAABBBBAYKoFEqGo/uGuP9GH0s1qSHflmvcfH9x3bJd6B7oUCkamukvaQwABBKZFgABrWlinr9F+O6qfhhboZKBScdna0HVStzfv0tIzB6evU1pGAAEEEEAAAQQQQACBOSkwFCrV3979cX0scUT1mb7cGJLphHYf2q6Mk5Zl2XNyXBSNAALFJ0CANUfmPG0G9VLJCn0lVKOsDL2vp0Xv2vkDlQz1yPC8OTIKykQAAQQQQAABBBBAAIGZFOgJl+mP7/tP2tLzkiJeNtd1T3+nXju8TZFQdCZLoS8EEEDgigSMx775PdKPKyKcvotTZlBdVlTPhxfokFWqmni/7mw7rNVtR1TRM/z8OgcCCCCAAAIIIIAAAgggcCmBlrqV+t+3Pqj/2rtdwZEA61T7CR07dYDHB7ltEEBgTgkQYOXhdDmGrebQPD0VqtfrVljXDA3q3oPPqLHrpEKpmAzPzcOqKQkBBBBAAAEEEEAAAQTyTeDY4uv02LXv0F/07VRgJMDafXi7+mM9CtjBfCuXehBAAIFLChiPfYsVWLN5f/gbsmcNS5ncP6aOWeV6MtKgvqyhJfFuvfvUPq08vm02S6RvBBBAAAEEEEAAAQQQmKMCh5bfou+sv12f7N8l23OVTqf0wmtPKRgIyTLZ/2qOTitlI1CUAgRYMzjtrkxlDFuDdoli/uOBZkRbrZLc91KmrRXptJqtsNZ0NuutJ3aopr9NdiYxgxXSFQIIIIAAAggggAACCBSSwLaND+jlxhX6o8G9sjxXPf1d2n14q4KBsEzDLKShMhYEEChwAQKsKZrg4Y3EDLmGIX9VlSNDcTOoQSuqdrtcp+0yHbTCOiFLpjxZrivTc7Uok9IyJ6Vres6oJtathWcOKhwffr0tBwIIIIAAAggggAACCCBwJQI/3vz7OlFZoT8Y3C9Tro40H9DpjhMKBcIyDONKmuZaBBBAYEYFCLAug9tfSZU1TPmbrA+YYQ2YQTWbIQ0YlgasEg2ZAXUaQcVlaEE6qYrEoEJOSnWxHjUM9agik1LV0IBKE/0KJfplOanLqIJLEEAAAQQQQAABBBBAAIE3Fvj62z+udDCrB+NH5WYz2nnwRSVSQwraIegQQACBOSVgfJU9sN50wlJGSAN2idrsCp2xozpsBnXADOVWWrkjq64anYzqXUdX93VoXn+H6rqbVdXTnHvO3F+qa3ieTDfLBuxvqs0JCCCAAAIIIIAAAgggMFUC//LOv1Cd16/3DJ1QIhnTa4e2KpvNyrbY/2qqjGkHAQRmRqDoA6zhDdTt3ON+CcNSqxnWkGErZkXUY0V0zIyoR6YqnIyi6SHZWUeh1KDWJga0IBlX/WCXymM9Kol1spJqZu5ZekEAAQQQQAABBBBAAIEJCLhWUB/89f9TvzPUpLuTp9XV2659x3cpaAV5fHACfpyCAAL5JVBUAVbaCOaCqQ67TCnD0itWVC1mUI7/OKARUMowVZvNqjyb0eJ4n+oGOlXZ26J5g+0qyToKO6nc3lWBdEJWNp1fM0k1CCCAAAIIIIAAAggggMAYgVRJlT78jj/Vnw6d0KbkGTWdOaoTLYcUDkZwQgABBOacQMEEWKP7UmVyK6pM9RhhJU1bg1aJWu0y7bKiajMs2Z6nUDaTW0llOyndlIypYWhAi3taVDHYobK+MzIJp+bcjUzBCCCAAAIIIIAAAgggMF5goHqJ/vStv6u/ih/RqlSHduz7lYZScQXtIFQIIIDAnBMwvvqtfxt+gd4cOjL+aikzoAEzokErqD1mWL1mUGkjoEErpJhh64xha3UmqdpkXHWDXSoZ6teygTaFsxlVpYYUTicUGerjsb85NO+UigACCCCAAAIIIIAAAhMX6J63Wv/HLe/Tf4kfUWOiTS/tflqGYcoyrYk3wpkIIIBAngjkbYDlb5DuH0NmRP6qqn47quPBKp0yS/QLK5z7zJAn///8X9+eGNTSeJ9Wth9XwElpwek9hFN5cpNRBgIIIIAAAggggAACCMy8QNPSG/U3G+/Rfxs8KLPziHYf3aZQICLTMGe+GHpEAAEErlBgVgMsx7CVNmw5hqU+K6QjZkhxI6SEGVKPHVFGpl6xIlripFSeTqlyqE+hVFxrY10qzaRUlkmrJtalsv5WWQ57Ul3hvcDlCCCAAAIIIIAAAgggUEACR1fcov+x/k793eABndr/C/UMdipkh9nAvYDmmKEgUEwCMxZg+SuqYlZJbk+qk4FytZgRvWSF5ebWTxm5VVaDhqnbcntS9aux+7SCmaTmndmvqJuV7WYVzGZkulmZ2UwxzRFjRQABBBBAAAEEEEAAAQQmLbB9/T16eMUN+vveXXp11xPyPE9BOzTpdrgAAQQQyAcB46vfvvI9sLKGKUe2/F8T/v5Tpp179C9mRtRpR5UwLP3Siqomm1HEySiSHso95vf/sXffUXLVZ57/P/feSt3KGSGBhIQIEkI5C4loQIDABGMMBmywPbYxYMPuzuzuOfubndlZz87u2h7PYNYBY3ISGQwChHLOrVaWWjmHDhW7wv2dKoTcarWMWuquuuFdOhz+4Nb3+zyv5x7O4cO93xoer1bXZFzt0kmdc3SPOh/aKjOXcYILNSCAAAIIIIAAAggggAACrhaYc/mN+lPfIfovOz/T+nWzFLCChb/4IIAAAm4UaHaAlX9iKlEIpyLaF2irA2ZIq8xI4QmqfIAVM4PaZQR1WTqpXvFalaeT6lazX10ObVX3YwFWeSqmYDqpQDrhRjNqRgABBBBAAAEEEEAAAQQcL/D0qDu17Jx+erzyJW3bvV5lofLCIe58EEAAATcKnBBg5X+O0JaprGEoK1P1hqk6M6LDVnsdDZTpoBnRe4F2itg5Wbn8XxkZtq3u6YTGxGvVK3pEvQ7tUPva/SqLHnCjBzUjgAACCCCAAAIIIIAAAq4XyAbC+l9j7lbXDp01YtWftO/w7kKAxQcBBBBwq4Dxi2mf2VEzpJgR0GozopQZUtwMqcYMq84IKJjN6pxEVOH8Qeqxo+pSs0d90vlD1RNql6xTMJ1SefSgW/unbgQQQAABBBBAAAEEEEDAcwKZYJn+eew31be8TOcv+Z2SqTivD3puyjSEgL8EjOD0ffYXT15JPbMZjYnX6PzqA+p1aLs61uwphFOmnT9m3S48bWXYOX8J0S0CCCCAAAIIIIAAAggg4DKBRHlH/fPYezQsU63Aot+pLNxGhgyXdUG5CCCAwF8EjJ//y7N2+3itIqmo2tXswQYBBBBAAAEEEEAAAQQQQMDlAtG2XfXzcd/SsCMbVVb5Jq8PunyelI8AApLx+o8fyT98xQcBBBBAAAEEEEAAAQQQQMAjAtXtexQCrEFV89R952yFghGPdEYbCCDgVwECLL9Onr4RQAABBBBAAAEEEEDAswIHOvXS/xx3r8atfkOdjm7g/CvPTprGEPCPAAGWf2ZNpwgggAACCCCAAAIIIOATgT2dz9M/jb9XVy9+Ru3je2WZlk86p00EEPCqAAGWVydLXwgggAACCCCAAAIIIOBbgdXd+ukfx9+rBz/+W0WC5TIMDnD37c1A4wh4RIAAyyODpA0EEEAAAQQQQAABBBBA4EuBJX1G6tlBV+mWz/+7wsEyYBBAAAHXCxBguX6ENIAAAggggAACCCCAAAIInCgw9+Kr9E6fwbpu3v9W0ArBgwACCLhegADL9SOkAQQQQAABBBBAAAEEEEDgRIE/D79dczt20zVLfiPDMOFBAAEEXC9AgOX6EdIAAggggAACCCCAAAIIIHCiwDtjvqXKgKFxFS9CgwACCHhCgADLE2OkCQQQQAABBBBAAAEEEEDgLwK/m/w9ReMHNHTDO7AggAACnhAgwPLEGGkCAQQQQAABBBBAAAEEEPhCICtbP7/2J+p4aKMGbp0OCwIIIOAJAQIsT4yRJhBAAAEEEEAAAQQQQACBLwQOW1n9f9f/rQZvm6MBuxbCggACCHhCgADLE2OkCQQQQAABBBBAAAEEEEDgC4GVZab++br/rClrXlPvQxthQQABBDwhQIDliTHSBAIIIIAAAggggAACCCCQf31Q+rxjez1/xSOaUvGauh/ZDAsCCCDgCQECLE+MkSYQQAABBBBAAAEEEEAAAanGzGrmOf317vC7dfPqV9WxehssCCCAgCcECLA8MUaaQAABBBBAAAEEEEAAAQSk7VZac/qN1awBV+vmilfUvmYnLAgggIAnBAiwPDFGmkAAAQQQQAABBBBAAAEEpHWBlOZffJ2W9h6uW1a/orLYPlgQQAABTwgQYHlijDSBAAIIIIAAAggggAACfhewJS0KxbVoyD3a3KGXbln9soLJo35noX8EEPCIAAGWRwZJGwgggAACCCCAAAIIIOBvgZRh67NQTJuGfUdb2nTRLateUqC+1t8odI8AAp4RIMDyzChpBAEEEEAAAQQQQAABBPwscNDKaEkgqdnjHlVSOU1d+aKMXNrPJPSOAAIeEiDA8tAwaQUBBBBAAAEEEEAAAQT8K7A6mNSuUEhvjn9U/WIHNG7Na/7FoHMEEPCcAAGW50ZKQwgggAACCCCAAAIIIOA3gbRha3ooJjPUXtPG/ViDandr6No3/cZAvwgg4GEBAiwPD5fWEEAAAQQQQAABBBBAwB8CtWZWc4IJGWXdNW3M9zX68GZdtPF9fzRPlwgg4AsBAixfjJkmEUAAAQQQQAABBBBAwMsCO6y0KgIpGe366I1RD+rKPSt0XtUML7dMbwgg4DMBAiyfDZx2EUAAAQQQQAABBBBAwFsCOUn586/2mhnVd7lEbw37lm7cOkfddy/wVqN0gwACvhYgwPL1+GkeAQQQQAABBBBAAAEE3C6QP/9qWTCpOuV0tOdQvXf5nbp71etqU73Z7a1RPwIIIHBcgACLmwEBBBBAAAEEEEAAAQQQcLFA1MhpYTAhS9K+c4frg8F36N7lzytSt9PFXVE6AgggcKIAARZ3BAIIIIAAAggggAACCCDgYoH9VkbLAkmV24bWnT9OMwfdqh/M/rmMXNrFXVE6AgggQIDFPYAAAggggAACCCCAAAIIeEZgcTCuo4atsKQVF03R4n5X6Puz/tEz/dEIAgggkBfgCSzuAwQQQAABBBBAAAEEEEDApQJZSbNCMeX/HpS0dODXVd3jUl2z8Fcu7YiyEUAAgaYFCLC4MxBAAAEEEEAAAQQQQAABlwpUm1nNCyYUsQ1ZMrT4sm8o1fl8TVzylEs7omwEEECAAIt7AAEEEEAAAQQQQAABBBDwlMC6QEpVVroQYJkyNHfkw2prGBqy5kVP9UkzCCCAAE9gcQ8ggAACCCCAAAIIIIAAAi4UyElaHEzoqJlVmW3kT4jR8lHfV9t0QgM2THNhR5SMAAIInFqAAIu7AwEEEEAAAQQQQAABBBBwoUDUyGlJMKG0YStkG8pZEb07+T9o7JYZ6nFgpQs7omQEEECAAIt7AAEEEEAAAQQQQAABBBDwlMBeK6OVgaTChdcHpWjXQfpw6F26ednvVJas9lSvNIMAAgjwBBb3AAIIIIAAAggggAACCCDgQoEtgXptsOpVXnh9UKq67Jta1/FcXbf6BQXSMRd2RMkIIIDAqQUIsLg7EEAAAQQQQAABBBBAAAEXCiwNJnTEyCqkL18ffFIdq7dp0vr3ZNgZF3ZEyQgggAABFvcAAggggAACCCCAAAIIIOAZgXrD1qehWOHsq4CkZLve+sPER3TV9nm6tGqGZ/qkEQQQQOBLAZ7A4l5AAAEEEEAAAQQQQAABBFwmcMTMaGEwqcix868O9B6rNwbfqrvXvKXOhypd1g3lIoAAAl8tQID11UZcgQACCCCAAAIIIIAAAgg4SmBdIKntVqZwgHv+BKwNF92gz/pN1neXPqNwbI+jaqUYBBBAoCUECLBaQpE1EEAAAQQQQAABBBBAAIEiCWQMW58H47INu/AKoW0G9fmQb0odz9NVC39VpCrYBgEEECiuAAFWcb3ZDQEEEEAAAQQQQAABBBA4K4GomdO8YEKWrcL5V+lwe00f+ZD6J2t08dpXz2ptvowAAgg4VYAAy6mToS4EEEAAAQQQQAABBBBAoAmBvWZaK4OpwvlX+dcHE+Vd9f64H+v6DR+p3eE1mCGAAAKeFDBe//FPbE92RlMIIIAAAggggAACCCCAgMcE8v/xti6Q0narXmV2Pr6S9pw7WosG3qjb5v0fj3VLOwgggMBfBAiwuBsQQAABBBBAAAEEEEAAAZcI5CQtDyZ0xMgqdKzmdYPv0f523TR5xTMu6YIyEUAAgeYLEGA134xvIIAAAggggAACCCCAAAIlEag3bM0Nxgp7m5JsM6Q/T3pS5xxcr2Fbp5ekJjZFAAEEiiFAgFUMZfZAAAEEEEAAAQQQQAABBFpA4KiZ1YJgvPD6YOH8qw599dy4H+i6jR/ogr0rW2AHlkAAAQScKUCA5cy5UBUCCCCAAAIIIIAAAgggcJLA0mBCh4yMIoX4Stp7wdWafuFk3Vr5pjoc3YIYAggg4FkB4/VHOMTds9OlMQQQQAABBBBAAAEEEPCMQP78q9nBmOqVU+hYgLVqyLe0pnNf3bXyBQWTRzzTK40ggAACjQUIsLgnEEAAAQQQQAABBBBAAAEXCNQaWc0JxhW2pYAM5QJlemf0w+pmZzVh5fP5E7Fc0AUlIoAAAmcmQIB1Zm58CwEEEEAAAQQQQAABBBAoqsBmq14brFTh/Kv8Ae7JNj307sgHNax6hy7c+F5Ra2EzBBBAoNgCBFjFFmc/BBBAAAEEEEAAAQQQQKCZAvlnq1YGEtprZlRuf3H+1dEuF+r94fdr6rr31f7w2mauyOUIIICAuwQIsNw1L6pFAAEEEEAAAQQQQAABHwokjZyWBBJKGDmFjgVY6/pdoy0XTNBN8/+vD0VoGQEE/CZAgOW3idMvAggggAACCCCAAAIIuE6g2shqYTBeCK/yrw/mP0uHfFuZsvYas+pPruuHghFAAIHmChBgNVeM6xFAAAEEEEAAAQQQQACBIgvstOpVYaWOvz4oGfrzlX+rAXtWqf/O2UWuhu0QQACB4gsQYBXfnB0RQAABBBBAAAEEEEAAgWYJ5M+/2m9kFNYX518lOvbXC2Mf0tSVz6t7zc5mrcXFCCCAgBsFCLDcODVqRgABBBBAAAEEEEAAAd8IpA1bnwajCtiGgse63nPhFM3tM0JTVr2kNrH9vrGgUQQQ8K8AAZZ/Z0/nCCCAAAIIIIAAAggg4AKBajOr+YG4wrYh61i9s8Y/qjrZumHNa7LSMRd0QYkIIIDA2QkQYJ2dH99GAAEEEEAAAQQQQAABBFpVYFMgpc1mvSK2UXiBMBco17OTn9Sg6iqNWveuDDvbqvuzOAIIIOAEAQIsJ0yBGhBAAAEEEEAAAQQQQACBJgSysjU3GFfSyBWewMp/4u3P08tjHtZVu5fpgqoZuCGAAAK+ECDA8sWYaRIBBBBAAAEEEEAAAQTcKJAwcloQiCv/jNXx86/OG6v3B03V3RXT1P7IBje2Rc0IIIBAswUIsJpNxhcQQAABBBBAAAEEEEAAgeIIHDIzWh5IKmBLZn5Lw9TCS2/VkXMH68Z5v5BkF6cQdkEAAQRKLECAVeIBsD0CCCCAAAIIIIAAAgggcCqBzVa9NloplR97fTBnBjVn+ANqHwhp6KrngEMAAQR8I2C88chPiOx9M24aRQABBBBAAAEEEEAAATcJrAoktNfIKnys6Ewgog8n/kyjdi5Wzz0L3dQKtSKAAAJnJUCAdVZ8fBkBBBBAAAEEEEAAAQQQaB2BnKRZwZjyB7lbx7ao6XKpXhl1v+6f/wuVpeOtszGrIoAAAg4UIMBy4FAoCQEEEEAAAQQQQAABBBCImjnNCsQUsY0vzr+StP2iqaroeYluWP6MApkkSAgggIBvBAiwfDNqGkUAAQQQQAABBBBAAAE3CawLJFVlpgsBlnGs8DlXPCnFD2ni+rdl5DJuaodaEUAAgbMSIMA6Kz6+jAACCCCAAAIIIIAAAgi0vED+9cG5wZjiRk7hLw9wD5Tp6ev+m8bvXKwhWz+VYeev4oMAAgj4Q4AAyx9zpksEEEAAAQQQQAABBBBwkUDSyOmzYExBScFjAVaiQ189N+77unnTdPXas9RF3VAqAgggcPYCBFhnb8gKCCCAAAIIIIAAAggggECLCmy30qqwkiprcP7VlounaEaf8bpn9atqW1PVovuxGAIIIOB0AQIsp0+I+hBAAAEEEEAAAQQQQMBXAraktYGUtpn1Kj/29JVtBjVryDeV6NBL1y/5fzJzaV+Z0CwCCCBAgMU9gAACCCCAAAIIIIAAAgg4SCAjW8sCCR01s8fPv8qE2umjEQ+qTzalwRUvOahaSkEAAQSKI0CAVRxndkEAAQQQQAABBBBAAAEETksgYeQ0KxhX0JbMY9+ItT1HH45+WFdXzVWXfZx/dVqQXIQAAp4SIMDy1DhpBgEEEEAAAQQQQAABBNwukH/yan4gfvz1wXw/O3qN1vuX364fzfxHt7dH/QgggMAZCRBgnREbX0IAAQQQQAABBBBAAAEEWkegIpDULiOtiIzjG6y99Hbt7H6hrl/8VOtsyqoIIICAwwUIsBw+IMpDAAEEEEAAAQQQQAAB/whkDFufBKOybEPBBm3PuuIJdazeqSGbP/QPBp0igAACDQQIsLgdEEAAAQQQQAABBBBAAAGHCNSaWc0OxAuHtweO1WRbIT39tb/XVVvn6JIdsx1SKWUggAACxRUgwCquN7shgAACCCCAAAIIIIAAAqcUqLLqtdZKqcw2jr9AWNt9iN4aeqduqpymrkc2o4cAAgj4UoAAy5djp2kEEEAAAQQQQAABBBBwmkBO0qJgXNVGVhH7L+dfVQ79tio699HUildVHt3rtLKpBwEEECiKAAFWUZjZBAEEEEAAAQQQQAABBBD46wIpw9aiQFwJ2QoduzT/+uBnox6WDENXV7wiM5uCEQEEEPClAAGWL8dO0wgggAACCCCAAAIIIOA0gRojq8XBhExbMo8Vly7rqtfHPKxh1Tt06YZ3nVYy9SCAAAJFEyDAKho1GyGAAAIIIIAAAggggAACpxbYYaVVYSVV3uD1wZouF+nt4ffqlo2fqvOBFfAhgAACvhUw3njkUdu33dM4AggggAACCCCAAAIIIOAQgcpAUdCqLAAAIABJREFUQjuNjMLHj2+X1vW7Suv7T9KtC/6N1wcdMifKQACB0ggQYJXGnV0RQAABBBBAAAEEEEAAgeMC+acK5gSjSslWoEGAtWTwN1XdpY+uW/TvaCGAAAK+FiDA8vX4aR4BBBBAAAEEEEAAAQScIBAzcpoZjCpim8fPv8rXNf2KJ9T/0Gb13/aZE8qkBgQQQKBkAgRYJaNnYwQQQAABBBBAAAEEEEDgC4FNgZQ2malCgGV8iWKYeuqG/6E7Kqapx+H1UCGAAAK+FiDA8vX4aR4BBBBAAAEEEEAAAQRKLZCTtDgY01EjWwiwvvzUdb9c7w+5XVOX/1Ft4odLXSb7I4AAAiUVIMAqKT+bI4AAAggggAACCCCAgN8FUoat2YGocoYUavALhCvG/Ei7wm10/eoXFUrV+p2J/hFAwOcCBFg+vwFoHwEEEEAAAQQQQAABBEorsMdMa2UgUQivrGMvENpmUJ9OfFyR2EFNWP+OzFy6tEWyOwIIIFBiAQKsEg+A7RFAAAEEEEAAAQQQQMDfApuslDZaKZU3eH0w1aannrniEX1t+zz13zbb30B0jwACCEgiwOI2QAABBBBAAAEEEEAAAQRKJGBLWhGIa7+ZP//q+PHtOtxzuF4dcqfuqXxbnQ6tLVF1bIsAAgg4R4AAyzmzoBIEEEAAAQQQQAABBBDwmUBWtj4LRWXa+svrg4aplZfcrE29h+v2Rb9RIB3zmQrtIoAAAicLEGBxVyCAAAIIIIAAAggggAACJRKIGznNCEYLrw9++fxVzgpr5tB7le54rq5f8MsSVca2CCCAgLMECLCcNQ+qQQABBBBAAAEEEEAAAR8JrAsktM1IK6y/BFj14Xb6aMwPNWp/pXrunOUjDVpFAAEETi1AgMXdgQACCCCAAAIIIIAAAgiUQCBj2Po0GJVhS6Hjz19JteWd9fKkJ3T/8hdUFt1ZgsrYEgEEEHCeAAGW82ZCRQgggAACCCCAAAIIIOADgaiR1cxgTCHbULBBgLWv50jNvewm3TH/FzLsnA8kaBEBBBD4agECrK824goEEEAAAQQQQAABBBBAoMUFdln1WmklVWYbDV4glJaO/oGqQ+W6ZsUfCLBaXJ0FEUDArQIEWG6dHHUjgAACCCCAAAIIIICAawXyz1WtCCS0z0wXDnA//jFMzbziCbWt2amRmz6QZLu2RwpHAAEEWlKAAKslNVkLAQQQQAABBBBAAAEEEDgNgbRha1kgrhrlTjj/KtWut56b8ENN2fCBeu1ffRorcQkCCCDgDwECLH/MmS4RQAABBBBAAAEEEEDAQQJxI6eFwbhs2z7h9cGD503QB5dcp9srp6l9dZWDKqYUBBBAoLQCBFil9Wd3BBBAAAEEEEAAAQQQ8KHAPjNTeAKr4euDtmFp6eV3a2en3pq64jkF0lEfytAyAggg0LQAARZ3BgIIIIAAAggggAACCCBQZIGNVlJbzLQiDX59MBNqr/dGPqi+mYSGrXm5yBWxHQIIIOBsAQIsZ8+H6hBAAAEEEEAAAQQQQMBjAvlj2ecFo4rLVrBBgBVr30vvj3hAV+5eph675nmsa9pBAAEEzk6AAOvs/Pg2AggggAACCCCAAAIIINAsgYSR02fBqCK2IatBgLWn20X6YPgD+vaK5xSJ7m7WmlyMAAIIeF2AAMvrE6Y/BBBAAAEEEEAAAQQQcJTAXrNeywNJRWxTZoPKNvWZpMoBV+m2+f/HUfVSDAIIIOAEAQIsJ0yBGhBAAAEEEEAAAQQQQMAXAvnXB1cEEtpnplVmN4yvpDnjHpFhmpq44hlfWNAkAggg0BwBAqzmaHEtAggggAACCCCAAAIIIHAWAmnD1vxATAnDVtg2Tljpk8n/Sb0PbdSlVZ+cxQ58FQEEEPCmAAGWN+dKVwgggAACCCCAAAIIIOBAgUNmRksDCQVsnXD+Vard+Xp1/Pd08+qX1blmhwMrpyQEEECgtAIEWKX1Z3cEEEAAAQQQQAABBBDwkcAOK60KK6HyRq8P7u97tWb1G6ebK15ReWy/j0RoFQEEEDg9AQKs03PiKgQQQAABBBBAAAEEEEDgrAUqAgntMjOFXyA8/jFMLRn1sA4EQrphzWuyMvGz3ocFEEAAAa8JEGB5baL0gwACCCCAAAIIIIAAAo4V+CRUJ9lSQH8JsNKRLnpxwg81+tBGDdz0oWNrpzAEEECglAIEWKXUZ28EEEAAAQQQQAABBBDwjUDKsPVJsK7w64MNf3+wtsvFemP4t3TL1pnqtneJbzxoFAEEEGiOAAFWc7S4FgEEEEAAAQQQQAABBBA4Q4FNgaQ2mfWK2GaD56+kLeeP1acDb9EDy55VJLb3DFfnawgggIC3BQiwvD1fukMAAQQQQAABBBBAAAEHCGQlfR6qU0ZSuOH5VzK09OIp2nX+SN06/5cy7PyVfBBAAAEEGgsQYHFPIIAAAggggAACCCCAAAKtLBA3cpoVjMq0DYUaPH+VMwP6bNyP1V62xqx4ppWrYHkEEEDAvQLGGz951HZv+VSOAAIIIIAAAggggAACCDhfYL+Z1jIrUXj6quELhFkrqA8m/UcN3bNS5++c5fxGqBABBBAokQABVong2RYBBBBAAAEEEEAAAQT8IZB/YqDSSmqbWa82dsPj26VYx/56d/T9+vqSpxVJ1fkDhC4RQACBMxAgwDoDNL6CAAIIIIAAAggggAACCJyuQFa2VgYSOqiswicc3y7t6fc1LTt/mG5Y8UcF0/HTXZLrEEAAAd8JEGD5buQ0jAACCCCAAAIIIIAAAsUUqJet+YGYMrJlNQqwFo9/TPF0VJPWvSkzly5mWeyFAAIIuEqAAMtV46JYBBBAAAEEEEAAAQQQcJvAUSNbCLDKG70+mC7vrt9PflzXb52pfjvnu60t6kUAAQSKKkCAVVRuNkMAAQQQQAABBBBAAAG/CVRZKa03U4o0CrCqewzRK8O+obvWvacuB9f4jYV+EUAAgWYJEGA1i4uLEUAAAQQQQAABBBBAAIHTF8gf4L4gEFOdcgqd8PqgofUXT9GsvmP14NI/Kpw4cPqLciUCCCDgQwECLB8OnZYRQAABBBBAAAEEEECgOAJJI6dPA1GFbUOBBgGWbYb0ydB7FOvUW7ctekoG518VZyDsggACrhUgwHLt6CgcAQQQQAABBBBAAAEEnC5wwExriZVQxDZkNgiw6ss66c+jHtJ56aSGr3rW6W1QHwIIIFByAQKsko+AAhBAAAEEEEAAAQQQQMCLAvnXByutpLab9SqzG8ZXUl27c/Te2L/RtdsWqPvueV5sn54QQACBFhUgwGpRThZDAAEEEEAAAQQQQAABBL4QyMjWkkBcNUau8Aphw8/eHkM09/Kv646F/yozWw8ZAggggMBXCBBgcYsggAACCCCAAAIIIIAAAq0gUGNktTgQl2ydcP5VfqtNA27Stp4Ddd3S37TCziyJAAIIeE+AAMt7M6UjBBBAAAEEEEAAAQQQcIDAfjOjZVZckUavD+ZLmzf+UUUShzVywzsOqJQSEEAAAecLEGA5f0ZUiAACCCCAAAIIIIAAAi4UWG8ltdVMq6zR64Pp8nP03KRHNGXdOzr34DoXdkbJCCCAQPEFCLCKb86OCCCAAAIIIIAAAggg4AOBT4N1ytlSsMGvD+bbPnLuaH0waIpurXxDHaq3+UCCFhFAAIGzFyDAOntDVkAAAQQQQAABBBBAAAEEThCoN2xND9QpYhuyGgVY6y6/W6s699Wdq15SMHUUOQQQQACB0xAgwDoNJC5BAAEEEEAAAQQQQAABBJojUGWltNZMFc6/Mht8MRco1xtjv6+2dlZTVr0gI5duzrJciwACCPhWgADLt6OncQQQQAABBBBAAAEEEGgNgVz+kPZATFEjWwiwGn4S7XrprZEP6PLaXRq87s3W2J41EUAAAU8KEGB5cqw0hQACCCCAAAIIIIAAAqUSSBo5zbViyhhSuNEB7ge7D9QHQ+/R1zd8qI4HK0pVIvsigAACrhMgwHLdyCgYAQQQQAABBBBAAAEEnCxw2MxoqZWQZeuk86829ZmoFRddpzuWPK1AfZ2T26A2BBBAwFECBFiOGgfFIIAAAggggAACCCCAgNsFNlkpbTBTatPo9cF8XysG3qHarhfoyqVPu71N6kcAAQSKKkCAVVRuNkMAAQQQQAABBBBAAAGvC6y2Etptpk86/yrf9+cTHlPP2r26dMuHXmegPwQQQKBFBQiwWpSTxRBAAAEEEEAAAQQQQMDPArakuYGokrIVkHECRbr8HL028Ue6afWL6lS7289M9I4AAgg0W4AAq9lkfAEBBBBAAAEEEEAAAQQQaFogZuQ0MxBVmW02iq+kI73Ga8bFV+um1S+oPH4IQgQQQACBZggYb/zksfz/JOCDAAIIIIAAAggggAACCCBwlgK7rHqtNhOF1wdPfP5KWjPyIe0Ilev6ytcVSMfOcie+jgACCPhLgADLX/OmWwQQQAABBBBAAAEEEGglgfyTAYsDUR01sgo3OsA9E+6kZyb/VAOObNVV69+Rkcu0UhUsiwACCHhTgADLm3OlKwQQQAABBBBAAAEEECiyQMrI6ZNAnUIyFLRPfP4q2nmAXhz1gK7etUQXVc0ocmVshwACCLhfgADL/TOkAwQQQAABBBBAAAEEEHCAwBEzo/lWTBHbkNXoBcJdfSbo/Utv0oPLn1NZlAPcHTAuSkAAAZcJEGC5bGCUiwACCCCAAAIIIIAAAs4TyL8+uMlKapOZOvkAd8PQ6otuVEWfsbp7ye8UTFU7rwEqQgABBBwuQIDl8AFRHgIIIIAAAggggAACCDhfICdphRXXATNTeAKr4cc2g5o95JsKtuuhCUv/n/OboUIEEEDAgQIEWA4cCiUhgAACCCCAAAIIIICAuwTiRk4LAlHlbCnQ6PXBTLBc08f8jQYf3abzqz5xV2NUiwACCDhEgADLIYOgDAQQQAABBBBAAAEEEHCvQLWR0fxA/vwrs1F8JdV26KOPRn9HU5c/q7LEYfc2SeUIIIBACQUIsEqIz9YIIIAAAggggAACCCDgDYGtVkrrC+dfnfj6YL67PedP0rL+E3XTkqdl5dLeaJguEEAAgSILEGAVGZztEEAAAQQQQAABBBBAwHsCM4J1Stu2Qic9fyWtGPV9RQ1bV1S+LsPOeq95OkIAAQSKIECAVQRktkAAAQQQQAABBBBAAAHvCqQNWx8HahW2jZPPv4p01u+vfFKjt83WiB3zvItAZwgggEArCxBgtTIwyyOAAAIIIIAAAggggIC3BXZa9VptJgrnX5mNWq3tOkivjPyWbtw8XefvWe5tCLpDAAEEWlGAAKsVcVkaAQQQQAABBBBAAAEEvC2Qk60lgbgOG5kmD3CvuuhGzewzRnevelltonu8jUF3CCCAQCsKEGC1Ii5LI4AAAggggAACCCCAgLcF6mVrYSCmmJEtBFgnfAxDiy//pjZ37advLH9OwVS1tzHoDgEEEGhFAQKsVsRlaQQQQAABBBBAAAEEEPC2QI2R1ZJATLIlq9EB7tlgG3044gH1NGyNWvWCtyHoDgEEEGhlAQKsVgZmeQQQQAABBBBAAAEEEPCuwHazXhVWQm0aP30lKdm2hz4Y+aDG71+nc7d/7l0EOkMAAQSKIECAVQRktkAAAQQQQAABBBBAAAFvCqyzkqoyUyprIsDa332QZg25S7ctf07hxEFvAtAVAgggUCQBAqwiQbMNAggggAACCCCAAAIIeE9gfiCqqHIKNnp9MN/phguv17bzhuuGRf/mvcbpCAEEECiyAAFWkcHZDgEEEEAAAQQQQAABBLwhkDBy+ixQV3j6qtHx7YUGF47+G4WySY1YN80bDdMFAgggUEIBAqwS4rM1AggggAACCCCAAAIIuFdgn5nWcite+PVBo1EbmXAnvTD5p7pi08e6cP9q9zZJ5QgggIBDBAiwHDIIykAAAQQQQAABBBBAAAF3CSwPxLTfyBQCrMaf2u6X681hd+nmNa+r29EqdzVGtQgggIADBQiwHDgUSkIAAQQQQAABBBBAAAFnC9TL1ufBukKRIbvx81fSpsvu0squ/TS14lVFEoed3QzVIYAAAi4QIMBywZAoEQEEEEAAAQQQQAABBJwlUGNktSAQU8CWrCYOcJ839kc6EAwXAqxA/RdBFx8EEEAAgTMXMN549DH7zL/ONxFAAAEEEEAAAQQQQAAB/wlsM1OqNJOFA9xPPv+qo14e/0MNrdmhyze86z8cOkYAAQRaQYAAqxVQWRIBBBBAAAEEEEAAAQS8K5B/AmCNmdBOM62yJl4fjHbqp2kjvq3rdyxQz90LvAtBZwgggEARBQiwiojNVggggAACCCCAAAIIIOB+gYxszbWiyp+DFWzi9cGdvUfr84E36+6VzysS2+f+hukAAQQQcIAAAZYDhkAJCCCAAAIIIIAAAggg4B6BuJHTHCuqoC0ZJwVYhpYM/Lqi3Qfo6iVPuacpKkUAAQQcLkCA5fABUR4CCCCAAAIIIIAAAgg4S2CnWa8KM6FIE+dfyTA0c8yP1DNVo0s2vuOswqkGAQQQcLEAAZaLh0fpCCCAAAIIIIAAAgggUHyBmVadksopLPOkzTPhDnp10k/1tXXvqPvRzcUvjh0RQAABjwoQYHl0sLSFAAIIIIAAAggggAACLS+QMWx9ZNUqZBtNnn9V02OY3ht6u25f+lu1SVa3fAGsiAACCPhUgADLp4OnbQQQQAABBBBAAAEEEGi+wF6zXssKrw8aspo4wH3D0Pu1pV1Xfa3iJQXTseZvwDcQQAABBJoUIMDixkAAAQQQQAABBBBAAAEETkPAlrTKimu3kVZZU+dfSZpx5d9J8UO6av2bMrP1p7EqlyCAAAIInI4AAdbpKHENAggggAACCCCAAAII+F4gI1tLrbiOGJlCgNX4k4l00W+velLXbp+ri7fP9r0XAAgggEBLChBgtaQmayGAAAIIIIAAAggggIBnBeJGTovMmPJBVqCJ1wePnDNErwy7W3dt+LO671/pWQcaQwABBEohQIBVCnX2RAABBBBAAAEEEEAAAdcJ7DPTWmrG1aaJp6/yzWzrf43+POAafXf5HxWJ7XNdfxSMAAIIOFmAAMvJ06E2BBBAAAEEEEAAAQQQcIzAFjOlDWayydcHc1ZYM4bco3C77pq09DeOqZlCEEAAAa8IEGB5ZZL0gQACCCCAAAIIIIAAAq0qsMiKqkY5BZt4fTAdbq/pI7+rQdEDumDze61aB4sjgAACfhQgwPLj1OkZAQQQQAABBBBAAAEEmiWQNHL61KpTxDZkNRFg1bXvpXfHfE+3r3lD5bXbm7U2FyOAAAIIfLUAAdZXG3EFAggggAACCCCAAAII+FzgoJHWYiuuiG3q5N8flHadN0EzB16vb8/9F59L0T4CCCDQOgIEWK3jyqoIIIAAAggggAACCCDgIYE1VkI7jPpCgGU00dfqYQ/ocJtOunrFHzzUNa0ggAACzhEgwHLOLKgEAQQQQAABBBBAAAEEHCiQlq25VlQpw1bYbiq+kqZf+XfqcrRKIzd/4MAOKAkBBBBwv4Ax7dHHbPe3QQcIIIAAAggggAACCCCAQOsI1BlZLbRism0p0MTzV5myrvrT5J/qaxs/1Pn7V7dOEayKAAII+FyAAMvnNwDtI4AAAggggAACCCCAwF8X2GPWa6WZKDx9lf/T+HOk5wi9O3iqbl33tjof2QwnAggggEArCBBgtQIqSyKAAAIIIIAAAggggIB3BDaYSW0261V2itcHNw66Q0t6XKy7Vr+scOKQdxqnEwQQQMBBAgRYDhoGpSCAAAIIIIAAAggggIDzBGZbdYrLVqiJp6+ywTZ6e/RDOi+b0piKl5xXPBUhgAACHhEgwPLIIGkDAQQQQAABBBBAAAEEWl4gY9j6zKqTZUtN/f5gsu05emfkgxp7aKP6Vn3S8gWwIgIIIIBAQYAAixsBAQQQQAABBBBAAAEEEDiFwD4zraVmXGV2U/GVdLjbxXp/2L26a800tanZiiMCCCCAQCsJEGC1EizLIoAAAggggAACCCCAgPsFZll1ihk5hU8RYFVeeL2W9Z+oB+b+L/c3SwcIIICAgwUIsBw8HEpDAAEEEEAAAQQQQACB0glkZOujQK0CMhQ6xQHui0Y8pEykrSaufKZ0hbIzAggg4AMBAiwfDJkWEUAAAQQQQAABBBBAoPkCB4y0FlvxQniVD7Ga+rx5zX/V5btXaMDO2c3fgG8ggAACCJy2gDHt0cft076aCxFAAAEEEEAAAQQQQAABHwjk/yNpnZnQFjOl8lO8PpiJdNFzk3+mm9dOU48jm32gQosIIIBA6QQIsEpnz84IIIAAAggggAACCCDgUIGsbK204tprpAsBVlOfI+eO1icDb9DNq19W29h+h3ZCWQgggIA3BAiwvDFHukAAAQQQQAABBBBAAIEWFKiXrYVWVEnlTvn64IrRP9CucLluXPO6gvW1Lbg7SyGAAAIINBYgwOKeQAABBBBAAAEEEEAAAQQaCRw1MpprRdXmFE9fZUPt9adJj2vkoY0asulD/BBAAAEEWlmAAKuVgVkeAQQQQAABBBBAAAEE3Ceww0ypwkyo7BQBVrRTf7086gHduGOBzts5z30NUjECCCDgMgECLJcNjHIRQAABBBBAAAEEEECg9QWWWFEdVlahU/z64La+E/XRJVN0/6pX1KZ2W+sXxA4IIICAzwUIsHx+A9A+AggggAACCCCAAAIInCiQMnKabtUqbBtNnn9lm0HNGXqfMu176JolT8GHAAIIIFAEAQKsIiCzBQIIIIAAAggggAACCLhH4LCR0QIrqrBtymqi7Ewgoo8mPKYh+9fq/J2z3NMYlSKAAAIuFiDAcvHwKB0BBBBAAAEEEEAAAQRaXmCDmdAmM1U4/8poYvmaLpfozyPu0Z2LnlIwk2j5AlgRAQQQQOAkAQIsbgoEEEAAAQQQQAABBBBA4JhAVrYWWjHVGFlF7KbiK6ly6P3a2a6rvrbqOVnZeuwQQAABBIogQIBVBGS2QAABBBBAAAEEEEAAAXcIxI2cFptR1ctu8vyrTLiT/nDVk7p832qN2/yxDDvnjsaoEgEEEHC5AAGWywdI+QgggAACCCCAAAIIINByAoeMtJZacQVtyWjiBcK6rpfqpZH36eZN09V734qW25iVEEAAAQT+qgABFjcIAggggAACCCCAAAIIIHBMoMpMaa2ZKJx/1dRn24Vf06f9Jui+lS+pLLYXNwQQQACBIgkQYBUJmm0QQAABBBBAAAEEEEDA+QJzrTpFlVOoiaevsoEyfTT8fnUMlWniimec3wwVIoAAAh4SIMDy0DBpBQEEEEAAAQQQQAABBM5cIGPYmmHVyrAlq4kAK9buHH0w6mFduXOxeuxZeOYb8U0EEEAAgWYLEGA1m4wvIIAAAggggAACCCCAgBcFDpppLTJjitimmnqBcHuv0Vo2cIrumP9/vdg+PSGAAAKOFiDAcvR4KA4BBBBAAAEEEEAAAQSKJbDQiuqwkSkEWEYTmy4fcq9q23XXVSv+UKyS2AcBBBBA4JgAARa3AgIIIIAAAggggAACCPheICtbMwJ1yshW2D45vsqUddUfJ/1UY/eu0pAtH/neCwAEEECg2AIEWMUWZz8EEEAAAQQQQAABBBBwnMARI6NFVkyWLQWaeP6qpscwvT3k67pl7ZvqenSr4+qnIAQQQMDrAgRYXp8w/SGAAAIIIIAAAggggMBXCmwxk1pnJlV2itcHN152l1Z1vUBfr3hNoeSRr1yPCxBAAAEEWlaAAKtlPVkNAQQQQAABBBBAAAEEXCZgS1pjxrXdrFe5ffLx7ZlQe7027ge6JH5II9dOc1l3lIsAAgh4Q4AAyxtzpAsEEEAAAQQQQAABBBA4Q4GcpAVWnaLKKdjE64NHu12id4beoxurZqnn3qVnuAtfQwABBBA4GwECrLPR47sIIIAAAggggAACCCDgeoG4kdVnVl3h6aumfn1w9YVf046+4zR14S8lO/+8Fh8EEEAAgWILEGAVW5z9EEAAAQQQQAABBBBAwFEC+8x6LTXjpzz/as6IhxQKl2vcqj85qm6KQQABBPwkQIDlp2nTKwIIIIAAAggggAACCJwksNyKab/SCuvk86/SZd317KRHdd32heq3czZ6CCCAAAIlEiDAKhE82yKAAAIIIIAAAggggEDpBeqNnD62ahWyjabPv+o1Th8PvF63rnhWbRL8+mDpJ0YFCCDgVwECLL9Onr4RQAABBBBAAAEEEEBA1UZGc6yoIrYhq4kTsNaMfFi7QxFdV/m6ApkEYggggAACJRIgwCoRPNsigAACCCCAAAIIIIBA6QW2mklVmkmV24byfxp+MpHO+t2VT+iqXYs1sOrz0hdLBQgggICPBQiwfDx8WkcAAQQQQAABBBBAwM8COdlaZsV1wMiozD759wf39x6jaYNv1d1r31O3Q5V+pqJ3BBBAoOQCBFglHwEFIIAAAggggAACCCCAQCkEUrK1xIoqptxJ51/ZZkDzBt2u2h6X6KaF/yrDzpWiRPZEAAEEEDgmQIDFrYAAAggggAACCCCAAAK+FKgxslpoRRWwdfLrg8FyfTriOzpXOQ2teNGXPjSNAAIIOEmAAMtJ06AWBBBAAAEEEEAAAQQQKJrAbrNeK824ymzzpD2PdB6gaaMe0B2bZ6jrvqVFq4mNEEAAAQSaFiDA4s5AAAEEEEAAAQQQQAABXwossOpUrZzCTfz64I4LrtHS/hN0B68P+vLeoGkEEHCeAAGW82ZCRQgggAACCCCAAAIIINDKAlnZmhGolW1LgSYCrCVjfqhMNqUJ66ZJslu5GpZHAAEEEPgqAQKsrxLinyOAAAIIIIAAAggggIDnBI6Yac03YwrbpqxG3WXKuuqPk3+qGzZ9rD77VnqudxpCAAEE3ChAgOXGqVEzAggggAACCCCAAAKJgecvAAAgAElEQVQInJVAhRnXDrNeEds86fmrvX0n6+MBV+n2tW+pY3XVWe3DlxFAAAEEWkaAAKtlHFkFAQQQQAABBBBAAAEEXCKQk615VlR1RrYQYDX85KywPh7xgMpCZbpq5XMy7KxLuqJMBBBAwNsCBFjeni/dIYAAAggggAACCCCAQCOBWiOrRVZM+SAraBsn/NNUeVe9N/JBDY7u16Ub3sEOAQQQQMAhAgRYDhkEZSCAAAIIIIAAAggggEBxBHaa9VptxhW2DTV+gfBQ1wH6YPj9um3DR+p0qKI4BbELAggggMBXChBgfSURFyCAAAIIIIAAAggggICXBDaYCW0yUypv9Ppgvsc1l0xVVe+hunXBL73UMr0ggAACrhcgwHL9CGkAAQQQQAABBBBAAAEEmiOwyIrqqLIKnXR8uzR7/KPqkKzWsA1vN2dJrkUAAQQQaGUBAqxWBmZ5BBBAAAEEEEAAAQQQcI5AvZHTdKtWkSZeH0yX99DLVzyim9a8rm7V25xTNJUggAACCIgAi5sAAQQQQAABBBBAAAEEfCNwyEhroRUr/Prgib8/KO286CYt6D1Et1S8pjbxA74xoVEEEEDADQIEWG6YEjUigAACCCCAAAIIIIBAiwistuLaZdQrbJ94fHsuUK5pEx5RWTqqm9e8ITObbJH9WAQBBBBAoGUECLBaxpFVEEAAAQQQQAABBBBAwOECacPWJ1Zt4cmrkG2cUG2iXW+9MuYhXbV3pfpt+9zhnVAeAggg4D8BY9pjj9v+a5uOEUAAAQQQQAABBBBAwG8CtUZWc8w6BWUo0OgA9/3nDte7l92ue9a+rfZHN/qNhn4RQAABxwsQYDl+RBSIAAIIIIAAAggggAACLSGwy0hppZlQmYzCn+Mfw9DiS6bqSM/LNWXRr1piK9ZAAAEEEGhhAQKsFgZlOQQQQAABBBBAAAEEEHCeQP61kwozrp1GvcoaHd+eM4OaPv5RDajdpQFb/uy84qkIAQQQQEAEWNwECCCAAAIIIIAAAggg4HmBjGwtM2M6amQVavT6YLzd+Xp37EO6bfkzKk8e9bwFDSKAAAJuFCDAcuPUqBkBBBBAAAEEEEAAAQSaJZBQTnOtukJ0deLvD0pbB96pym79NWXVnxRMx5u1LhcjgAACCBRHgACrOM7sggACCCCAAAIIIIAAAiUUOGSktdCMqbzR64PZYDu9PPlJ9a7ZpSvXvykzly5hlWyNAAIIIHAqAWPaYz/lVwi5PxBAAAEEEEAAAQQQQMDTAovMOh02Moo0CrDiHfvrT2Mf0g1Vs9R/10JPG9AcAggg4GYBAiw3T4/aEUAAAQQQQAABBBBA4CsFsrI106pV/hysYKPzr3b3naz3L7pO3654VW1rd3zlWlyAAAIIIFAaAQKs0rizKwIIIIAAAggggAACCBRJoNrIaI5Zp7AMBRoEWLYZ0qdD75HVrqeuXfqbIlXDNggggAACZyJAgHUmanwHAQQQQAABBBBAAAEEXCOwwUhok5lURMYJB7gny7vqw1EPa8zB9Tpv++eu6YdCEUAAAT8KEGD5cer0jAACCCCAAAIIIICATwRysrXUjOmgkVZZo/Ov9va4XPMG3647Fz8lM5vyiQhtIoAAAu4UIMBy59yoGgEEEEAAAQQQQAABBE5DIG7klD/APSVboUbnX6275Dbt6j5A1y/77WmsxCUIIIAAAqUUIMAqpT57I4AAAggggAACCCCAQKsKHDDSWmJGC+dfmQ0CrGyovV6e9IQuPbxJoza+16o1sDgCCCCAwNkLEGCdvSErIIAAAggggAACCCCAgEMFqsykKo2Eyhu9PhjtMlCvjfiWbtrwrnoe2uDQ6ikLAQQQQOBLAQIs7gUEEEAAAQQQQAABBBDwrMBSM6qDRqbwBFbDT9UlU7Wo52W6fc1risQPerZ/GkMAAQS8IkCA5ZVJ0gcCCCCAAAIIIIAAAgicIFCvnD6xagpnX1kNAqxcoFxvj/6eemaTmlD5qmTbyCGAAAIIOFyAAMvhA6I8BBBAAAEEEEAAAQQQODOBI0Za84+df9UwwKrt3F/vDLtXk/esUN8ds89scb6FAAIIIFBUAQKsonKzGQIIIIAAAggggAACCBRLYJ2Z0FYjqcgJx7dLG/tM0poBV+vrS34jK5MsVjnsgwACCCBwFgIEWGeBx1cRQAABBBBAAAEEEEDAmQIZ2Zpl1ape9knnXy0ZfI9SHXpq0oo/OLN4qkIAAQQQOEmAAIubAgEEEEAAAQQQQAABBDwnEDOymmfWKX+6VbDB+VfZcEe9dMVPNXbfal1c9ann+qYhBBBAwKsCBFhenSx9IYAAAggggAACCCDgY4H9RlrLzJjCkowGAVZt96F6d+gdunXl8+oQ2+9jIVpHAAEE3CVAgOWueVEtAggggAACCCCAAAIInIbAejOhLUZSZTJPuHrjkPu0qV1X3VD5uoL10dNYiUsQQAABBJwgQIDlhClQAwIIIIAAAggggAACCLSYQP61wRVmVAeMjEINXx8MttMLk36moYfWa9iWjyU7fyUfBBBAAAE3CBBguWFK1IgAAggggAACCCCAAAKnLZCVrZlWrXKyZTUIsKq7DdIrw7+lW7fMUK+9S097PS5EAAEEECi9AAFW6WdABQgggAACCCCAAAIIINCCArVGRrPNusLrg8axdW3D1IqLb9L23iN025LfyMokW3BHlkIAAQQQaG0BAqzWFmZ9BBBAAAEEEEAAAQQQKKrAEjOqg0Za4QYBVs4Ka+bQ+9Q+3FajVz1b1HrYDAEEEEDg7AUIsM7ekBUQQAABBBBAAAEEEEDAIQL51wZnmbVKGfYJ51/FIx30+hVP6PodC3XurnkOqZYyEEAAAQROV4AA63SluA4BBBBAAAEEEEAAAQQcL1BnZDTTrCuEV8EG51/t6z1eMy+9Qd9Y9G8KZFOO74MCEUAAAQROFCDA4o5AAAEEEEAAAQQQQAABzwhsNZKqNBMqk9HgBUJp1YiHdCRUpqsrXpJhZz3TL40ggAACfhEgwPLLpOkTAQQQQAABBBBAAAGPC9iSVpsx7TTqVS7zeLfZcAe9OOkJjd8xXxfvWuBxBdpDAAEEvClAgOXNudIVAggggAACCCCAAAK+E0gpp8VWVFHlFG7w+uDhXqP11qBbdPv699Xt8HrfudAwAggg4AUBAiwvTJEeEEAAAQQQQAABBBBAQNXKaIEVVVA6/vqgbQY1Z8g9qup0nh5c+juZnH/FnYIAAgi4UoAAy5Vjo2gEEEAAAQQQQAABBBBoLLDbSGmFGT/h9cFMuIM+GPGA+qfjGrL2ddAQQAABBFwqQIDl0sFRNgIIIIAAAggggAACCJwosNKMaa+RPuH1wZqOffT+iO9oyrbZ6rpvGWQIIIAAAi4VIMBy6eAoGwEEEEAAAQQQQAABBP4ikJat6Va1AjIUbHD+1bZeY7T80ht156Jfy8hlIEMAAQQQcKkAAZZLB0fZCCCAAAIIIIAAAggg8BeBaiOjOWadIjJkNQiwFoz+GwWU09jKV+FCAAEEEHCxAAGWi4dH6QgggAACCCCAAAIIIPCFwGYjqfVmQmXHj2+XMpHOen3io7pq88fqdXAtVAgggAACLhYgwHLx8CgdAQQQQAABBBBAAAEEpKxszTfrVGdkFZF5nORA3yv1af/Jmlr5hjrU7YIKAQQQQMDFAgRYLh4epSOAAAIIIIAAAggggICUMHJaaNapXvbx869yVljTx/xASdPUrWteUyAdgwoBBBBAwMUCBFguHh6lI4AAAggggAACCCCAgHTEyGiJGZUlHX+BsL68u14Z8z0Nrt2lkevfhgkBBBBAwOUCBFguHyDlI4AAAggggAACCCDgd4EqI6lKM6HyBq8PHu02UG8NvVt3bpyuTofW+J2I/hFAAAHXCxBguX6ENIAAAggggAACCCCAgL8FVpsx7TbSCjf49cHVF16vqj5jddvif5eZS/sbiO4RQAABDwgQYHlgiLSAAAIIIIAAAggggIBfBXKyNcusVdqwFTgWYNmGqRljH1HP+loNXv+WX2noGwEEEPCUAAGWp8ZJMwgggAACCCCAAAII+EsgamQ106wt/Prgl78/WF/WTW9P+LFuXPO6OvLrg/66IegWAQQ8K0CA5dnR0hgCCCCAAAIIIIAAAt4XWFl4fbC+EGAZx9o93GucZl98jW5Z+azCqTrvI9AhAggg4AMBAiwfDJkWEUAAAQQQQAABBBDwokD+9cH5Zp3qjKzCx56/ygXK9M4VT6hd8qiuXfuGrEzSi63TEwIIIOA7AQIs342chhFAAAEEEEAAAQQQ8IZATFnNtuoK0VXw2PNXyXbn6ZkJP9I1Oxdo4LZZ3miULhBAAAEERIDFTYAAAggggAACCCCAAAKuFNhlpLTKjCskQ1Y+wDJMrbloilaeP1p3VryiNnW7XdkXRSOAAAIInCxAgMVdgQACCCCAAAIIIIAAAq4UWG8ktNlMqvzY64P1kQ76eORDuiCd0JA1L7myJ4pGAAEEEGhawJj22M9scBBAAAEEEEAAAQQQQAABNwlkZWuxWafqwvlXXxzfvvvc0fpw8FR9u2Ka2tRUuakdakUAAQQQ+AoBAixuEQQQQAABBBBAAAEEEHCdQL1szbCqZUmF1wezoXaaP/wBmbl6Tap8zXX9UDACCCCAwF8XIMDiDkEAAQQQQAABBBBAAAHXCRw00lpo1hVeH8w/f3X03FGaNvg23bTxQ/U+UOm6figYAQQQQIAAi3sAAQQQQAABBBBAAAEEPCawxoxph5FSRKZygYjmDb1XtWUddeOa1xSsr/NYt7SDAAIIIMATWNwDCCCAAAIIIIAAAggg4CqBjGxNt6oLR7fnf4GwuvOFem/4fbp6zwqdv32Wq3qhWAQQQACB0xMgwDo9J65CAAEEEEAAAQQQQAABhwjUGVnNNGsKh7cHZGjVJVO175zLNGXJUw6pkDIQQAABBFpagACrpUVZDwEEEEAAAQQQQAABBFpVYLuRVIUZV1n+8PZIF7008VGN3r9Wg7ZOb9V9WRwBBBBAoHQCBFils2dnBBBAAAEEEEAAAQQQaKZATraWmlHlD3EvMwLae8G1mtN3jKZWvKI28YPNXI3LEUAAAQTcIkCA5ZZJUScCCCCAAAIIIIAAAgioXjktNqOKGlnZbc/Vu6MeUq+63Zq44T0ZuQxCCCCAAAIeFSDA8uhgaQsBBBBAAAEEEEAAAS8K5M+/WmTmf2XQ1r7zxum9gbfo3rXvqsORDV5sl54QQAABBI4JEGBxKyCAAAIIIIAAAggggIBrBHYbKa0wYwpbEc0Y+ZDaBsKauPJZ19RPoQgggAACZyZAgHVmbnwLAQQQQAABBBBAAAEESiCwzoxrm5FSfYcL9OdR39HUVS9w9lUJ5sCWCCCAQLEFCLCKLc5+CCCAAAIIIIAAAgggcEYCtqQ5Zo3ilqnFo3+kRCCg61a/KCtbf0br8SUEEEAAAfcIEGC5Z1ZUigACCCCAAAIIIICArwXiRlYzzBplO12kF0d/V9dun6eLd82X7Hy0xQcBBBBAwMsCxrTHf8a/7b08YXpDAAEEEEAAAQQQQMAjApVGTFsDhtYOvluVXfvr2yufVyhx2CPd0QYCCCCAwF8TIMDi/kAAAQQQQAABBBBAAAHHC+T/r/sSo0472nYuHN4+qHa3Ltv4nuPrpkAEEEAAgZYRIMBqGUdWQQABBBBAAAEEEEAAgVYUSCin+Wat1l1wtdb3n6Q7Fv27zFy6FXdkaQQQQAABJwkQYDlpGtSCAAIIIIAAAggggAACTQrsV72WBrP6+Ion1Se6VyPXvYkUAggggICPBAiwfDRsWkUAAQQQQAABBBBAwK0CVUZSn/YbrwX9J2nq+nfV6ehWt7ZC3QgggAACZyBAgHUGaHwFAQQQQAABBBBAAAEEiiuwMGLqt2MfVsdsSjdVTlMgHS1uAeyGAAIIIFBSAQKskvKzOQIIIIAAAggggAACCJyOwAu9+uujy6Zq6paZ6rF/xel8hWsQQAABBDwkQIDloWHSCgIIIIAAAggggAACXhSoMTL6xfA7Vdf5fE1d+K9ebJGeEEAAAQS+QoAAi1sEAQQQQAABBBBAAAEEHC2wpk0bPTXuu5q4bbZ67V/l6FopDgEEEECgdQQIsFrHlVURQAABBBBAAAEEEECgBQSysvWr0Xerql033bz6BUWSNS2wKksggAACCLhNgADLbROjXgQQQAABBBBAAAEEfCRwtF13fe+KB3XdrmW6eNtMGXbWR93TKgIIIIDAlwIEWNwLCCCAAAIIIIAAAggg4EgB2zD11qXX6MW+w/WditfUrrrKkXVSFAIIIIBA6wsQYLW+MTsggAACCCCAAAIIIIDAGQikwm316xF3KGenNabypTNYga8ggAACCHhFgADLK5OkDwQQQAABBBBAAAEEPCZQde5l+uWga3TN0j+qQ7bWY93RDgIIIIBAcwQIsJqjxbUIIIAAAggggAACCCBQNIHnJ35Xm1LVunLta7KsQNH2ZSMEEEAAAecJEGA5byZUhAACCCCAAAIIIICA7wW29Rqsvxt8va6rfFP9a7b63gMABBBAwO8CBFh+vwPoHwEEEEAAAQQQQAABhwlkrZB+OeIO7QtHNHHVi+qoeodVSDkIIIAAAsUWIMAqtjj7IYAAAggggAACCCCAwF8V2NWlr/5p+G26fOdi9dv2mcKhMsQQQAABBHwuQIDl8xuA9hFAAAEEEEAAAQQQcJrAx5deq7d7XaLr5/9abZVWMBByWonUgwACCCBQZAECrCKDsx0CCCCAAAIIIIAAAgicWiDRppueHnWnOh1Zr66Vb6k80k6WZUGGAAIIIOBzAQIsn98AtI8AAggggAACCCCAgJME1lw4Uc9eNEa3VL6h2O4KlZe1k2EYTiqRWhBAAAEESiBAgFUCdLZEAAEEEEAAAQQQQACBkwUS5Z31H8d9S9eF0uq65FnV1h5RWaQNVAgggAACCIgAi5sAAQQQQAABBBBAAAEEHCGwuO8oPX/plfpe9WrtW/FO4ewr0zQdURtFIIAAAgiUVsB48/Gf2aUtgd0RQAABBBBAAAEEEEDA7wJZM6DfjP6mzuvWVb2Xv6D9B7aqvKy931noHwEEEEDgmAABFrcCAggggAACCCCAAAIIlFxgf5cL9PiYb+gfMtu07rOnjx3eHih5XRSAAAIIIOAMAQIsZ8yBKhBAAAEEEEAAAQQQ8K1AJhDRrMunqKJnb41Z/pyOHtpZOPvKMHh90Lc3BY0jgAACjQQIsLglEEAAAQQQQAABBBBAoKQCdR166XsT7tV3ajYot+RFWVZAoWCkpDWxOQIIIICAswQIsJw1D6pBAAEEEEAAAQQQQMBXAjkzoPcGXae55w3U3evf0N7tq9S2vD1PX/nqLqBZBBBA4KsFCLC+2ogrEEAAAQQQQAABBBBAoJUEqtt20f8c/U1NMuMy5/xaATOoYDDcSruxLAIIIICAWwUIsNw6OepGAAEEEEAAAQQQQMADAgsvGKtPL52gu3d+qo3rZhd+edAwDA90RgsIIIAAAi0pQIDVkpqshQACCCCAAAIIIIAAAqctkA611ZOTvqvhuRp1n/eUTMNUOFR22t/nQgQQQAAB/wgQYPln1nSKAAIIIIAAAggggICDBAztOG+o/uGyq3Xf9hmq3TBDbcs7cPaVgyZEKQgggICTBAiwnDQNakEAAQQQQAABBBBAwCcC9eG2+v3wryvetlyjlj+rRPSoIuFyn3RPmwgggAACzRUgwGquGNcjgAACCCCAAAIIIIDAWQvs6NZf/zDsVj18ZIUOrny78PQVHwQQQAABBE4lQIDFvYEAAggggAACCCCAAAJFF3hh+B2qPuc8DZn/a8USdTx9VfQJsCECCCDgLgECLHfNi2oRQAABBBBAAAEEEHC9QKqsk/7L5O9q8u5F0tr3VB5pJ8sKuL4vGkAAAQQQaD0BAqzWs2VlBBBAAAEEEEAAAQQQaCRgG6beGfkNLe7UVeMXPi0rWa2ySBtJBlYIIIAAAgicUoAAi5sDAQQQQAABBBBAAAEEiiZQ1/4cfW/8fbriQIXOXzNNZYGwAoFg0fZnIwQQQAABdwoQYLlzblSNAAIIIIAAAggggIDrBGzD0ooBV+jn/UfrweV/lHG0SmWRtq7rg4IRQAABBIovQIBVfHN2RAABBBBAAAEEEEDAlwL1wYj+ddTdigRt9ZnzK5WVtVXA4ukrX94MNI0AAgg0U4AAq5lgXI4AAggggAACCCCAAAJnJrC51+X6l0FX66b5v1QgVVd4+sowOPvqzDT5FgIIIOAvAQIsf82bbhFAAAEEEEAAAQQQKIlAzgzqF5Me1pHEEY1e+luVh8oUDIZKUgubIoAAAgi4T8B48/EnbPeVTcUIIIAAAggggAACCCDgJoGq3pfr7y67VtdWvqMee5aqbXlHnr5y0wCpFQEEECixAAFWiQfA9ggggAACCCCAAAIIeF0gE4jon0beoW3l7XTTot+qvZ1UMMDTV16fO/0hgAACLSlAgNWSmqyFAAIIIIAAAggggAACJwkc7NxH/zz0Jg3YsUi9t3+uNmXtUUIAAQQQQKBZAgRYzeLiYgQQQAABBBBAAAEEEGiuwKyLJumVPkN144y/VyRUplAw0twluB4BBBBAwOcCBFg+vwFoHwEEEEAAAQQQQACB1hTIBiL6+8kPqcuOhepf9ZnKI+1kmlZrbsnaCCCAAAIeFCDA8uBQaQkBBBBAAAEEEEAAAacIzBt0vX5/7kW6dtkf1SW2X5FwG6eURh0IIIAAAi4SIMBy0bAoFQEEEEAAAQQQQAABNwkkIx302IT71PfIVl229k21DUX45UE3DZBaEUAAAQcJEGA5aBiUggACCCCAAAIIIICAlwTm9B2lf790sm5a9bq6H1mncKjcS+3RCwIIIIBAEQUIsIqIzVYIIIAAAggggAACCPhFwDYtPTvidm0Nl2v0gl8Wzr6yrIBf2qdPBBBAAIEWFiDAamFQlkMAAQQQQAABBBBAAAHpSJd++h/DbtaQ1a+oW/UWlUXaSjKgQQABBBBA4IwECLDOiI0vIYAAAggggAACCCCAwF8TeGfsfZpl2rpi2e/VIRDk6StuFwQQQACBsxIgwDorPr6MAAIIIIAAAggggAACjQUOdeytH4y/R1du+Fj9d85Tm0g7kBBAAAEEEDgrAQKss+LjywgggAACCCCAAAIIINBQIH/21fOX3aBF3S/QFSteVI/UIZmmBRICCCCAAAJnJUCAdVZ8fBkBBBBAAAEEEPj/27vTKC3rM0/Av7eqoFgEFFRQUXGFgIII4obYGjVRMSYajNGonc5MMj2dznRMMvNlzpmcnp6ZM0lPLzN9ku6OreMktjEqBo1J0IgiBhcUBGQTZVEEBdmKoqDWd055uqeTTJaC2t7l4ivP87/v+7qfD56fD89LgACBXxRoGDoy3zhvTobt35HJy+/94NtXBd++8pAQIECAQDcFBFjdBHQ7AQIECBAgQIAAAQL/IvDyqRfm26edl2ue/5uM6DiYAXUD8RAgQIAAgW4LCLC6TegAAgQIECBAgAABAgQ6BQ4OHpn7zrsx7+56M1PWzs2wIUeCIUCAAAECPSIgwOoRRocQIECAAAECBAgQIPDGSVPz9QmzcuXy+3PCvi3evvJIECBAgECPCQiweozSQQQIECBAgAABAgSqV6C9tj7/bcZN2V9sycXL7smw+iHVi2FyAgQIEOhxAQFWj5M6kAABAgQIECBAgED1CawbMyF/OfmjOXfjz3PKO89lYF199SGYmAABAgR6TUCA1Wu0DiZAgAABAgQIECBQPQIPTflYnh95XGa98K0Mry2kpqameoY3KQECBAj0uoAAq9eJFSBAgAABAgQIECBQ2QL7hx2XO2Z+JpeteyKnv7M4g+qHVvbApiNAgACBPhcQYPU5uYIECBAgQIAAAQIEKkvgpbM+mntGnZArXrknowptKRS8fVVZGzYNAQIE+l+gMPfLXyn2fxs6IECAAAECBAgQIECgHAWahh6dL150a87YtjzT35ifgQN8+6oc96hnAgQIlLqAAKvUN6Q/AgQIECBAgAABAiUrUMii0y7I3addkGtfuiujWvekpqa2ZLvVGAECBAiUr4AAq3x3p3MCBAgQIECAAAEC/SrQWlef/zXj5uzvaMl5S+/KYN++6td9KE6AAIFKFhBgVfJ2zUaAAAECBAgQIECgFwU2jf5Q/mzyVblsxcM5rnFzar191YvajiZAgEB1Cwiwqnv/pidAgAABAgQIECBwWAJtA4bkTy/8TA4278llK+7LkLoBh3WOmwgQIECAQFcEBFhdUXINAQIECBAgQIAAAQK/JPDe6PH50tTrcuXqeTl91+spFAqECBAgQIBArwkIsHqN1sEECBAgQIAAAQIEKlOgo3ZAHjz76jx91HGZveTvM6zgh80rc9OmIkCAQOkICLBKZxc6IUCAAAECBAgQIFAWAjuHj85/Oe+mTNy0OOO2Pp8BdQPLom9NEiBAgED5Cgiwynd3OidAgAABAgQIECDQLwILT78kD514Vq5+7hsZUn+Efz7YL1tQlAABAtUlIMCqrn2blgABAgQIECBAgEC3BFrqh+drM+/ISe+uzjkbfpo6H2/vlqebCRAgQKBrAgKsrjm5igABAgQIECBAgEDVCxQLhbx85mX5mxPPykeX35fjD+6sehMABAgQINA3AgKsvnFWhQABAgQIECBAgEDZCzQNOSpfO//mjNy3LZesnZd6H28v+50agAABAuUiIMAql03pkwABAgQIECBAgEA/C2wYMyH/eco1uWbpP+aYA9t8+6qf96E8AQIEqklAgFVN2zYrAQIECBAgQIAAgW4I/MP0m7JhQF0uXXZ36gcM6sZJbiVAgAABAocmIMA6NC9XEyBAgAABAgQIEKhKgYNDRuXfXXxbZr1yT8a27UlSqHrnaeIAAB06SURBVEoHQxMgQIBA/wgIsPrHXVUCBAgQIECAAAECZSNQrKnN92d8Okvq6nLFa9/P0I6DZdO7RgkQIECgMgQEWJWxR1MQIECAAAECBAgQ6DWB90eOy+fPvymXb16cSVt+npoUe62WgwkQIECAwK8TEGB5LggQIECAAAECBAgQ+I0CHTV1+dvJ1+aZMWfktpfvzvCWXbQIECBAgECfCwiw+pxcQQIECBAgQIAAAQLlI3Cg/oj8+fmfzlHvv5GJm59MbW1d+TSvUwIECBCoGAEBVsWs0iAECBAgQIAAAQIEel5g1Ynn5q8nXJKPL/pGhg6s7/kCTiRAgAABAl0QEGB1AcklBAgQIECAAAECBKpRoKN2YP77rH+Vwo61OX/Tk6mpqa1GBjMTIECAQAkICLBKYAlaIECAAAECBAgQIFCKAutPmpb/NGFWrl39w4xt2FiKLeqJAAECBKpEQIBVJYs2JgECBAgQIECAAIFDEWgdMCRfP29OatORi9c+kkFtjYdyu2sJECBAgECPChTmfvmrfgO3R0kdRoAAAQIECBAgQKD8BVaNmZBvTP5oLntzYcZtX5pCoVD+Q5mAAAECBMpWQIBVtqvTOAECBAgQIECAAIHeE5g3eXbmHzMuc178q9TU+OXB3pN2MgECBAh0RUCA1RUl1xAgQIAAAQIECBCoIoGDg4/Mn150a059c0HO2LWmiiY3KgECBAiUqoAAq1Q3oy8CBAgQIECAAAEC/SSw4Jzr88BRY3Ldqgcz7OCufupCWQIECBAg8C8CAixPAwECBAgQIECAAAEC/0+gceio/PGFt2TK9lU5Z+NTvn3l2SBAgACBkhAQYJXEGjRBgAABAgQIECBAoBQECpl/+sX54bipuWLd4zl674ZSaEoPBAgQIEAgAiwPAQECBAgQIECAAAECHwi01tXnr8//dJqLrZn52n1UCBAgQIBAyQgIsEpmFRohQIAAAQIECBAg0L8Cm44/O//x7Ctz4/L7M7JpW/82ozoBAgQIEPgFAQGWx4EAAQIECBAgQIAAgQ8EHrz4jqxo3pPL1z+emmIbFQIECBAgUDICAqySWYVGCBAgQIAAAQIECPSfwJbR4/PlqbNz3RtP5uTtK/qvEZUJECBAgMCvERBgeSwIECBAgAABAgQIVLlAR01d7pp8bVYfOTqzX70nAzpaq1zE+AQIECBQagICrFLbiH4IECBAgAABAgQI9LHAjuFj8s3pN2T8+6/n9E0/6+PqyhEgQIAAgd8tIMD63UauIECAAAECBAgQIFDRAotPvyQPnHRWrltxXwa0NFT0rIYjQIAAgfIUEGCV5950TYAAAQIECBAgQKBHBA4MGZVvXnRLjty+KlM2LeiRMx1CgAABAgR6WkCA1dOiziNAgAABAgQIECBQRgIrT78kfzFuSj6+5pEcue+dMupcqwQIECBQTQICrGratlkJECBAgAABAgQI/IJA86Dh+fqMORnW0pCL1jyUQrHIhwABAgQIlKSAAKsk16IpAgQIECBAgAABAr0vsOKESfnWpCvz0dd/nKN2vd77BVUgQIAAAQKHKSDAOkw4txEgQIAAAQIECBAod4Fvnzcn7w8aklnL7y33UfRPgAABAhUuIMCq8AUbjwABAgQIECBAgMCvE9gz4vj86wtvycfeXJCT3lsKiQABAgQIlLSAAKuk16M5AgQIECBAgAABAj0v0F5Xn7snX5PVRxyZa1Y/mIEtjT1fxIkECBAgQKAHBQRYPYjpKAIECBAgQIAAAQLlIPD2yBPzlRk3Zda2ZTl744JyaFmPBAgQIFDlAgKsKn8AjE+AAAECBAgQIFBdAu2Fmvxg/CV58qRz86nl38ugAzuqC8C0BAgQIFCWAgKsslybpgkQIECAAAECBAgcnsDO+sH50wtvy8R972bC+kcP7xB3ESBAgACBPhYQYPUxuHIECBAgQIAAAQIE+kugmOTnY8/O/RMuzSeXfDs1xfb+akVdAgQIECBwSAICrEPicjEBAgQIECBAgACB8hVoGDg4/+GSP8hxje9m1tpHUih2lO8wOidAgACBqhIQYFXVug1LgAABAgQIECBQrQKdUdXLx0/IX519TT6+/icZ/f6aaqUwNwECBAiUoYAAqwyXpmUCBAgQIECAAAEChyrQWD80fzn1+uwaNCTXrbgvtW0HDvUI1xMgQIAAgX4TEGD1G73CBAgQIECAAAECBPpOYOWRo/MX02/KNW+9kGPfXdJ3hVUiQIAAAQI9ICDA6gFERxAgQIAAAQIECBAoZYHWdOTbU67N1qPG5uql3ynlVvVGgAABAgR+rYAAy4NBgAABAgQIECBAoMIF1gwelD+f+YVctuFnOXHHqgqf1ngECBAgUIkCAqxK3KqZCBAgQIAAAQIECPyTQHOh8MHbV2tGnpjrVz+coU3b2RAgQIAAgbITKMy986vFsutawwQIECBAgAABAgQIdElg/dAj82fn35qJDVsyY/2PU9PR2qX7XESAAAECBEpJQIBVStvQCwECBAgQIECAAIEeFOhIcv/pF+bR0y7K7694IEMat/Tg6Y4iQIAAAQJ9JyDA6jtrlQgQIECAAAECBAj0qcDuQkf+6wW3ZWSxIxetur9PaytGgAABAgR6UkCA1ZOaziJAgAABAgQIECBQIgJtKeaHx5yU+efckOtX/GOGNe0okc60QYAAAQIEDl1AgHXoZu4gQIAAAQIECBAgUPIC79UU842Zn8+w5j2Zte7R1LY3l3zPGiRAgAABAr9JQIDl2SBAgAABAgQIECBQYQKdb189Pea0/N2UG/KJDQsy9t2lFTahcQgQIECg2gQEWNW2cfMSIECAAAECBAhUvEBDbW2+OeXabBx1am5f/t3UH9hZ8TMbkAABAgQqW0CAVdn7NR0BAgQIECBAgEAVCrw04ujcNfXGzNyxNie/tbAKBYxMgAABApUmIMCqtI2ahwABAgQIECBAoKoF9qctd024PGvHTs3NL/3PpFisag/DEyBAgEBlCAiwKmOPpiBAgAABAgQIECCQzqjqlfqa3HvRFzL+/bU5e9PTVAgQIECAQEUIFB6586v+l0xFrNIQBAgQIECAAAEC1S6wJ215YMJlWTz2nNy4Zl5GNLxV7STmJ0CAAIEKERBgVcgijUGAAAECBAgQIEBgdf3A/I8Zt+ZDB/fmvLVzgRAgQIAAgYoREGBVzCoNQoAAAQIECBAgUM0CbSnmf48dnycmzs7NbzyZUTtWVjOH2QkQIECgwgQEWBW2UOMQIECAAAECBAhUp8DqQlMenHJTOoYdm8tfvbs6EUxNgAABAhUrIMCq2NUajAABAgQIECBAoFoEDqYj8445MfPPmZMr35if499fUy2jm5MAAQIEqkRAgFUlizYmAQIECBAgQIBAZQp0/iLTmuzPvOm3593BwzN79cMZ2NJQmcOaigABAgSqVkCAVbWrNzgBAgQIECBAgEAlCLSmI8+MHJPvTL81V77zcs58a1EljGUGAgQIECDwSwICLA8EAQIECBAgQIAAgTIW2FZozT3jfy/bxk7L9UvvzoDWxjKeRusECBAgQODXCwiwPBkECBAgQIAAAQIEylSgI8UsrE9+cMEXMrnxvUx8fV6ZTqJtAgQIECDw2wUEWJ4QAgQIECBAgAABAmUqsC3N+dGJ5+T58Vdlzsr7M6Rpe5lOom0CBAgQICDA8gwQIECAAAECBAgQqDiBthTz80ED8/BFn8+xe9/KzPWPp1DsqLg5DUSAAAECBDoFvIHlOSBAgAABAgQIECBQhgI705rHTpqcn0y4Op9Y/5Mc9/6aMpxCywQIECBAoGsCAqyuObmKAAECBAgQIECAQEkJPD+gPQ9O/VTqB43IVcvvTU1HW0n1pxkCBAgQINCTAgKsntR0FgECBAgQIECAAIE+EGhIW+aOPCaLzr0tv7d1WU56e1EfVFWCAAECBAj0n4AAq//sVSZAgAABAgQIECBwyAKdvzz4Yhry1JSb0zTi+Fy54rupaW855HPcQIAAAQIEyklAgFVO29IrAQIECBAgQIBA1QvsSVuePWJY7p35R/nwWy9mkrevqv6ZAECAAIFqEBBgVcOWzUiAAAECBAgQIFAxAq/VtmX+hKuy9tgz84nVczO0aXvFzGYQAgQIECDwmwQKj9z5tSIeAgQIECBAgAABAgRKX6A5HXli2BF5aPrtmdi4LResfTSJ/5wv/c3pkAABAgS6KyDA6q6g+wkQIECAAAECBAj0gUBnTLUhTfnxydOy7MyrMmfVgxnSuLUPKitBgAABAgT6X0CA1f870AEBAgQIECBAgACB3ynQmPY8mz15cuadOaajPRe/9r3feY8LCBAgQIBApQgIsCplk+YgQIAAAQIECBCoWIF/fvvq+aNPyTPnfCofWzsvIxo2V+y8BiNAgAABAr8qIMDyTBAgQIAAAQIECBAocYGWdGRxXVvun/nFjGjZn4+snZu6tgMl3rX2CBAgQIBAzwkIsHrO0kkECBAgQIAAAQIEekXgnRzMM0efmIem35FPbHo2J299qVfqOJQAAQIECJSqgACrVDejLwIECBAgQIAAAQJJOlLMU7X78+LEj2fjmEm5Zek/pK61kQ0BAgQIEKgqAQFWVa3bsAQIECBAgAABAuUmsCUHs3hwXZ46/48ya/uajN3ybLmNoF8CBAgQINBtAQFWtwkdQIAAAQIECBAgQKB3BDq/ffV89uaVCddl4/GT88mXv9U7hZxKgAABAgRKXECAVeIL0h4BAgQIECBAgED1CmxNc14aWJN5s+7MtO1rcvamn1UvhskJECBAoKoFBFhVvX7DEyBAgAABAgQIlKpAMcnyQmOeHn9Vlo6dnk+uezRH7t1Uqu3qiwABAgQI9KqAAKtXeR1OgAABAgQIECBA4PAE9qYtPxuUzJ/+Bxnd0ZbL1jyc2vbmwzvMXQQIECBAoMwFBFhlvkDtEyBAgAABAgQIVJ5Ae4p5IXuz7oRpefpD1+bmdT/KEXs3VN6gJiJAgAABAl0UEGB1EcplBAgQIECAAAECBPpKYGdaPwiwlpxzR9qHjswVK7/bV6XVIUCAAAECJSkgwCrJtWiKAAECBAgQIECgWgU6v321Oo1ZedSJmT/9tlz9+uMZvfvNauUwNwECBAgQ+EBAgOVBIECAAAECBAgQIFBCAgfTkWcL+7Lw/C+kaeDQfGTt3Aw+uLuEOtQKAQIECBDoewEBVt+bq0iAAAECBAgQIEDgNwqsSmOWjRybx6bdnqu2Lc9pby9KodhBjAABAgQIVLWAAKuq1294AgQIECBAgACBUhJoTkd+WtidVz70iaw5cXo+t/z+DG7aVkot6oUAAQIECPSLgACrX9gVJUCAAAECBAgQIPDLAp3fvup8+2rt4KFZPPX2nNG0IxM3/BQTAQIECBAg4BtYngECBAgQIECAAAECpSFwIO0f/PLgW8dPz3OTZueTy+7JoJZ9pdGcLggQIECAQD8LeAOrnxegPAECBAgQIECAAIFOgY05kOUDinn6oj/JmMatufDNn6TQ0Q6HAAECBAgQ8AaWZ4AAAQIECBAgQIBA/wu0pZifZVc2jZuVp8Z/JDe++WSO276y/xvTAQECBAgQKBEBb2CVyCK0QYAAAQIECBAgUL0CW3IwS+ra88zU2zJq0PDMXPVAatsOVC+IyQkQIECAwK8ICLA8EgQIECBAgAABAgT6UaDzlwefy568dfSZeXLqrbl+8+KMeXdJP3akNAECBAgQKD0BAVbp7URHBAgQIECAAAECVSTwVg5meRrz5sQ52XrsGbl26d9X0fRGJUCAAAECXRMQYHXNyVUECBAgQIAAAQIEekVgSfZm8/DjsnDaHTl72ysZv/WlXqnjUAIECBAgUM4CAqxy3p7eCRAgQIAAAQIEylpgX9qyMLuzadKcvHrshNy4Zm6GNG0v65k0T4AAAQIEekNAgNUbqs4kQIAAAQIECBAg8DsEOlLM89mbrcOOzePTP5spDVtz7vrHuBEgQIAAAQK/RkCA5bEgQIAAAQIECBAg0A8C76U5L6YhG8ddmnWnfzhXr300wxs290MnShIgQIAAgdIXEGCV/o50SIAAAQIECBAgUGECnW9fdX64/e1CaxZd/JWMbmnMeWsfrLApjUOAAAECBHpOQIDVc5ZOIkCAAAECBAgQINAlgca0Z1F2Z9/oqXls8o35+LrHcvSeN7t0r4sIECBAgEA1CgiwqnHrZiZAgAABAgQIEOhXgRXZlw0D6/P6uXdkZzrykXXzUtt+sF97UpwAAQIECJSygACrlLejNwIECBAgQIAAgYoTaEhbns7uHDh6Yh6cdluu27Qop2xbUnFzGogAAQIECPSkgACrJzWdRYAAAQIECBAgQOC3CHR+++qV7MvWmmKWnXVTdh9zRq5f+p3UtjdzI0CAAAECBH6LgADL40GAAAECBAgQIECgjwT2pz0vZm92DT06T53/h5m+842cvnF+H1VXhgABAgQIlK+AAKt8d6dzAgQIECBAgACBMhPYkKasyv5s/tAn8+bo8Zm94nupa2sqsym0S4AAAQIE+l5AgNX35ioSIECAAAECBAhUoUBzOj54+2rP4FG559I7c8G7r+WCDZ1vXxWrUMPIBAgQIEDg0AQEWIfm5WoCBAgQIECAAAEChyWwMU1ZUdOc3eMuy5OnXpKb1j6aIxs2H9ZZbiJAgAABAtUmIMCqto2blwABAgQIECBAoM8FWtKRhZ2/PDhwWBZMuyPDa+ty+cr7Uih29HkvChIgQIAAgXIUEGCV49b0TIAAAQIECBAgUFYCm3MgK9OYvcdMyjNTPpXr1/0ow/ZuLKsZNEuAAAECBPpTQIDVn/pqEyBAgAABAgQIVLxAR4pZnL3Zm7YsmfFv0l4/LFcsv6fi5zYgAQIECBDoSQEBVk9qOosAAQIECBAgQIDArwh0Bled/3ywMOLUPHj+53LtG09kzPurOREgQIAAAQKHIFB45Ctf87MnhwDmUgIECBAgQIAAAQJdFeh8++rZ4p401tZl8bl3ZO+Qo3L96rmpb97d1SNcR4AAAQIECCQRYHkMCBAgQIAAAQIECPSSwNZic5akIR0jxuWh6Z/NpTvWZPymp3qpmmMJECBAgEDlCgiwKne3JiNAgAABAgQIEOhHgfYUs6TYkO2Ftrx1xuwsO3lGbn713gxs3tOPXSlNgAABAgTKU0CAVZ570zUBAgQIECBAgECJC+xMa54v7k1tTV2evPjOjG/YkgkbnyjxrrVHgAABAgRKU0CAVZp70RUBAgQIECBAgEAZC3R+ZHZ1GrOxeDCNx52XBZNm58ZX78mglsYynkrrBAgQIECg/wQKj3zl3/uIe//5q0yAAAECBAgQIFCBAg1py6Li7hQGDMvDs76SM/a9mxnrH0tte0sFTmskAgQIECDQ+wICrN43VoEAAQIECBAgQKCKBDq/fbW62JhNOZiGsRdl7qTrcsOGBRn73qtVpGBUAgQIECDQswICrJ71dBoBAgQIECBAgECVC+xLW14o7klL3eA8PfX2tA8dmdkr7ktdW1OVyxifAAECBAgcvoAA6/Dt3EmAAAECBAgQIEDg/xNYn/1ZW2xK69FnZf7kG3LNhoU5ctdqUgQIECBAgEA3BARY3cBzKwECBAgQIECAAIFfFGhNRxYWd6ctxaybNCdbRp2S2a/eDYkAAQIECBDopoAAq5uAbidAgAABAgQIECDwzwKri/vyZg5kQP2oPDDrTzJr86Kc+q5vX3lCCBAgQIBAdwUEWN0VdD8BAgQIECBAgACBJM3pyJPFnakp1GbVlFuyfuQpuW7dYxm+bwsfAgQIECBAoJsCAqxuArqdAAECBAgQIECAQKfAG8WmrMn+ZOiYzJv++5l4YHemvv6j1HS0ACJAgAABAgS6KSDA6iag2wkQIECAAAECBAh0fvvq+eKeNKY9b5x6ZRaeeXk+t/LhDN23GQ4BAgQIECDQAwICrB5AdAQBAgQIECBAgEB1C2xPS14o7sng1OS5GX+YYR0tOe/1edWNYnoCBAgQINCDAgKsHsR0FAECBAgQIECAQPUJdP7iYOe3rzpSTNuoSZl37s25bvXDGbnvnerDMDEBAgQIEOglAQFWL8E6lgABAgQIECBAoPIFikneTXNeKu7NoJqBWXThH6fY3pwPv/5YatsOVD6ACQkQIECAQB8JCLD6CFoZAgQIECBAgACByhPo/PbVkmJDdqY1zUdPygPn3pLZb7+QU955ofKGNREBAgQIEOhHAQFWP+IrTYAAAQIECBAgUN4CO9KSV4oNKdTU5flJn8zBY07P5avmZtCB7eU9mO4JECBAgECJCQiwSmwh2iFAgAABAgQIECgfgeXFhmxJc9qPGJtHZnw2M3eszxmbnyqfAXRKgAABAgTKRECAVSaL0iYBAgQIECBAgEBpCTSmLQuKuzIoNdlyxrV59cSp+cSyu1Pb3lJajeqGAAECBAhUgIAAqwKWaAQCBAgQIECAAIG+Fej8ePuS4p5sT2vqBo7I/Iu+mJN2vZFpm55O0vm3/hAgQIAAAQI9KSDA6klNZxEgQIAAAQIECFSFwM605MXi3hSSbDvtqjx56iX59Jp5ObJhc1XMb0gCBAgQINDXAgKsvhZXjwABAgQIECBAoOwFVhUbsyEHMnDg8Dx+7u0ZU1OTma/dX/ZzGYAAAQIECJSqgACrVDejLwIECBAgQIAAgZIUaE0xC4o7U0wx748+J4vP+ngu37w4x25fVpL9aooAAQIECFSCgACrErZoBgIECBAgQIAAgT4TWFlsyMYczOBCXZac+7k0Dj0qH3317j6rrxABAgQIEKhGAQFWNW7dzAQIECBAgAABAoclcCDteaK4MwNSSOuoibl/2q25ZsPTGbd9+WGd5yYCBAgQIECgawICrK45uYoAAQIECBAgQKDKBTp/W3BlcV825kCGpCZrpnwma0eMyQ2r52ZgS0OV6xifAAECBAj0roAAq3d9nU6AAAECBAgQIFAhAgfTkZeLe9OQtrSOGJeHpt2ei99fm4mbnq6QCY1BgAABAgRKV0CAVbq70RkBAgQIECBAgEAJCbydg1le3JdBqcnq0z6c10+ZmRuW3Z261qYS6lIrBAgQIECgMgUEWJW5V1MRIECAAAECBAj0oEBHivl5cXf2pT0Dawblpxd/KScd3JNz1j3Sg1UcRYAAAQIECPwmAQGWZ4MAAQIECBAgQIDA7xDYkgNZ+k9vX+066dIsOPOyXLdmXkbse5sdAQIECBAg0AcCAqw+QFaCAAECBAgQIECgfAVa05HFxT1pTHvq6kflby/7Wibt2pgr1v8oNe0t5TuYzgkQIECAQBkJCLDKaFlaJUCAAAECBAgQ6HuB99Kcl4sNGZBCdh0/PT+YfGNuWfd4jt25tu+bUZEAAQIECFSpgACrShdvbAIECBAgQIAAga4JPF/cnZ1pS33t4Dw7+VNpOurkfOyVv0uh2N61A1xFgAABAgQIdFtAgNVtQgcQIECAAAECBAhUqsDetGZhcfcHvzzYNOyE/HTG53L1mwty1C5vX1Xqzs1FgAABAqUpIMAqzb3oigABAgQIECBAoJ8FOn958Lni7jSk/YMAa9VZN2XLqFNy3bK7+rkz5QkQIECAQPUJCLCqb+cmJkCAAAECBAgQ6ILAzrTkheLe1KSQ4hEn5P9c/G9z5TtLc8ZbC7twt0sIECBAgACBnhQQYPWkprMIECBAgAABAgQqQqCYZEVxXzbnQAbXDMqSSTdk3bFnZs7aeRm+752KmNEQBAgQIECgnAQEWOW0Lb0SIECAAAECBAj0icD+tH/wzwc7/7QPHZ0fTrsjkw7szNR1jybpjLf8IUCAAAECBPpSQIDVl9pqESBAgAABAgQIlLxA57ev3khT1hWbMjg1eeeE6XnuQ7Nz08rvp/7AjpLvX4MECBAgQKASBQRYlbhVMxEgQIAAAQIECBy2wL60ZVFxdwopZGAKWXDRl3JER2suXv2Dwz7TjQQIECBAgED3BP4vpC90kWtWzE4AAAAASUVORK5CYII=;" vertex="1" parent="1">
          <mxGeometry width="1200" height="736" as="geometry" />
        </mxCell>
        <mxCell id="HGxuzXBtgqDV2k-sE6lM-2" value="&lt;b&gt;&lt;font style=&quot;font-size: 28px;&quot;&gt;Overlapping Layers&lt;/font&gt;&lt;/b&gt;" style="text;html=1;align=center;verticalAlign=middle;whiteSpace=wrap;rounded=0;fillColor=#FF9933;strokeColor=#d79b00;" vertex="1" parent="1">
          <mxGeometry x="24" y="20" width="390" height="80" as="geometry" />
        </mxCell>
        <mxCell id="HGxuzXBtgqDV2k-sE6lM-3" value="" style="rounded=0;whiteSpace=wrap;html=1;strokeWidth=3;fillColor=none;strokeColor=#FFFFFF;" vertex="1" parent="1">
          <mxGeometry x="810" y="210" width="100" height="330" as="geometry" />
        </mxCell>
      </root>
    </mxGraphModel>
  </diagram>
</mxfile>
